<mxfile host="app.diagrams.net" agent="Mozilla/5.0 (Windows NT 10.0; Win64; x64) AppleWebKit/537.36 (KHTML, like Gecko) Chrome/136.0.0.0 Safari/537.36 Edg/136.0.0.0" version="27.0.5" pages="3">
  <diagram name="1 oldal" id="ePNQGzg98f3rhtgzejXV">
    <mxGraphModel dx="864" dy="482" grid="1" gridSize="10" guides="1" tooltips="1" connect="1" arrows="1" fold="1" page="1" pageScale="1" pageWidth="827" pageHeight="1169" math="0" shadow="0">
      <root>
        <mxCell id="0" />
        <mxCell id="1" parent="0" />
        <mxCell id="sAZUqS_JhSlkfdYbxXpa-1" value="Egyed-Esemény Mátrix" style="shape=table;childLayout=tableLayout;startSize=40;collapsible=0;recursiveResize=0;expand=0;fontSize=16;" parent="1" vertex="1">
          <mxGeometry x="250" y="60" width="1550" height="1120" as="geometry" />
        </mxCell>
        <mxCell id="sAZUqS_JhSlkfdYbxXpa-2" value="Admin" style="shape=tableRow;horizontal=0;swimlaneHead=0;swimlaneBody=0;top=0;left=0;strokeColor=inherit;bottom=0;right=0;dropTarget=0;fontStyle=0;fillColor=none;points=[[0,0.5],[1,0.5]];portConstraint=eastwest;startSize=40;collapsible=0;recursiveResize=0;expand=0;fontSize=16;" parent="sAZUqS_JhSlkfdYbxXpa-1" vertex="1">
          <mxGeometry y="40" width="1550" height="120" as="geometry" />
        </mxCell>
        <mxCell id="sAZUqS_JhSlkfdYbxXpa-3" value="Állomás megtekintése" style="swimlane;swimlaneHead=0;swimlaneBody=0;fontStyle=0;strokeColor=inherit;connectable=0;fillColor=none;startSize=40;collapsible=0;recursiveResize=0;expand=0;fontSize=16;flipH=1;flipV=0;" parent="sAZUqS_JhSlkfdYbxXpa-2" vertex="1">
          <mxGeometry x="40" width="196" height="120" as="geometry">
            <mxRectangle width="196" height="120" as="alternateBounds" />
          </mxGeometry>
        </mxCell>
        <mxCell id="sAZUqS_JhSlkfdYbxXpa-4" value="Regisztráció" style="swimlane;swimlaneHead=0;swimlaneBody=0;fontStyle=0;strokeColor=inherit;connectable=0;fillColor=none;startSize=40;collapsible=0;recursiveResize=0;expand=0;fontSize=16;" parent="sAZUqS_JhSlkfdYbxXpa-2" vertex="1">
          <mxGeometry x="236" width="164" height="120" as="geometry">
            <mxRectangle width="164" height="120" as="alternateBounds" />
          </mxGeometry>
        </mxCell>
        <mxCell id="sAZUqS_JhSlkfdYbxXpa-5" value="Bejelentkezés" style="swimlane;swimlaneHead=0;swimlaneBody=0;fontStyle=0;strokeColor=inherit;connectable=0;fillColor=none;startSize=40;collapsible=0;recursiveResize=0;expand=0;fontSize=16;" parent="sAZUqS_JhSlkfdYbxXpa-2" vertex="1">
          <mxGeometry x="400" width="130" height="120" as="geometry">
            <mxRectangle width="130" height="120" as="alternateBounds" />
          </mxGeometry>
        </mxCell>
        <mxCell id="2pi5OKYb4kzrXLW6N9wi-87" value="&lt;div&gt;O&lt;/div&gt;" style="text;html=1;align=center;verticalAlign=middle;resizable=0;points=[];autosize=1;strokeColor=none;fillColor=none;" vertex="1" parent="sAZUqS_JhSlkfdYbxXpa-5">
          <mxGeometry x="50" y="60" width="30" height="30" as="geometry" />
        </mxCell>
        <mxCell id="sAZUqS_JhSlkfdYbxXpa-53" value="Menetrend megtekintése" style="swimlane;swimlaneHead=0;swimlaneBody=0;fontStyle=0;strokeColor=inherit;connectable=0;fillColor=none;startSize=40;collapsible=0;recursiveResize=0;expand=0;fontSize=16;" parent="sAZUqS_JhSlkfdYbxXpa-2" vertex="1">
          <mxGeometry x="530" width="180" height="120" as="geometry">
            <mxRectangle width="180" height="120" as="alternateBounds" />
          </mxGeometry>
        </mxCell>
        <mxCell id="sAZUqS_JhSlkfdYbxXpa-56" value="Jegy vásárlása" style="swimlane;swimlaneHead=0;swimlaneBody=0;fontStyle=0;strokeColor=inherit;connectable=0;fillColor=none;startSize=40;collapsible=0;recursiveResize=0;expand=0;fontSize=16;" parent="sAZUqS_JhSlkfdYbxXpa-2" vertex="1">
          <mxGeometry x="710" width="150" height="120" as="geometry">
            <mxRectangle width="150" height="120" as="alternateBounds" />
          </mxGeometry>
        </mxCell>
        <mxCell id="sAZUqS_JhSlkfdYbxXpa-59" value="Jegy megtekintése" style="swimlane;swimlaneHead=0;swimlaneBody=0;fontStyle=0;strokeColor=inherit;connectable=0;fillColor=none;startSize=40;collapsible=0;recursiveResize=0;expand=0;fontSize=16;" parent="sAZUqS_JhSlkfdYbxXpa-2" vertex="1">
          <mxGeometry x="860" width="170" height="120" as="geometry">
            <mxRectangle width="170" height="120" as="alternateBounds" />
          </mxGeometry>
        </mxCell>
        <mxCell id="sAZUqS_JhSlkfdYbxXpa-62" value="Városok, állomások, vonatok, jegyek,&#xa;járatok, tagok, adminok, kedvezmények, vásárlás" style="swimlane;swimlaneHead=0;swimlaneBody=0;fontStyle=0;strokeColor=inherit;connectable=0;fillColor=none;startSize=40;collapsible=0;recursiveResize=0;expand=0;fontSize=16;" parent="sAZUqS_JhSlkfdYbxXpa-2" vertex="1">
          <mxGeometry x="1030" width="360" height="120" as="geometry">
            <mxRectangle width="360" height="120" as="alternateBounds" />
          </mxGeometry>
        </mxCell>
        <mxCell id="2pi5OKYb4kzrXLW6N9wi-66" value="&lt;div&gt;OMT&lt;/div&gt;" style="text;html=1;align=center;verticalAlign=middle;resizable=0;points=[];autosize=1;strokeColor=none;fillColor=none;" vertex="1" parent="sAZUqS_JhSlkfdYbxXpa-62">
          <mxGeometry x="155" y="60" width="50" height="30" as="geometry" />
        </mxCell>
        <mxCell id="2pi5OKYb4kzrXLW6N9wi-49" value="Statisztika" style="swimlane;swimlaneHead=0;swimlaneBody=0;fontStyle=0;strokeColor=inherit;connectable=0;fillColor=none;startSize=40;collapsible=0;recursiveResize=0;expand=0;fontSize=16;" vertex="1" parent="sAZUqS_JhSlkfdYbxXpa-2">
          <mxGeometry x="1390" width="160" height="120" as="geometry">
            <mxRectangle width="160" height="120" as="alternateBounds" />
          </mxGeometry>
        </mxCell>
        <mxCell id="sAZUqS_JhSlkfdYbxXpa-6" value="Tag" style="shape=tableRow;horizontal=0;swimlaneHead=0;swimlaneBody=0;top=0;left=0;strokeColor=inherit;bottom=0;right=0;dropTarget=0;fontStyle=0;fillColor=none;points=[[0,0.5],[1,0.5]];portConstraint=eastwest;startSize=40;collapsible=0;recursiveResize=0;expand=0;fontSize=16;" parent="sAZUqS_JhSlkfdYbxXpa-1" vertex="1">
          <mxGeometry y="160" width="1550" height="120" as="geometry" />
        </mxCell>
        <mxCell id="sAZUqS_JhSlkfdYbxXpa-7" value="" style="swimlane;swimlaneHead=0;swimlaneBody=0;fontStyle=0;connectable=0;strokeColor=inherit;fillColor=none;startSize=0;collapsible=0;recursiveResize=0;expand=0;fontSize=16;" parent="sAZUqS_JhSlkfdYbxXpa-6" vertex="1">
          <mxGeometry x="40" width="196" height="120" as="geometry">
            <mxRectangle width="196" height="120" as="alternateBounds" />
          </mxGeometry>
        </mxCell>
        <mxCell id="sAZUqS_JhSlkfdYbxXpa-8" value="" style="swimlane;swimlaneHead=0;swimlaneBody=0;fontStyle=0;connectable=0;strokeColor=inherit;fillColor=none;startSize=0;collapsible=0;recursiveResize=0;expand=0;fontSize=16;" parent="sAZUqS_JhSlkfdYbxXpa-6" vertex="1">
          <mxGeometry x="236" width="164" height="120" as="geometry">
            <mxRectangle width="164" height="120" as="alternateBounds" />
          </mxGeometry>
        </mxCell>
        <mxCell id="sAZUqS_JhSlkfdYbxXpa-69" value="&lt;div&gt;L&lt;/div&gt;" style="text;html=1;align=center;verticalAlign=middle;resizable=0;points=[];autosize=1;strokeColor=none;fillColor=none;" parent="sAZUqS_JhSlkfdYbxXpa-8" vertex="1">
          <mxGeometry x="67" y="45" width="30" height="30" as="geometry" />
        </mxCell>
        <mxCell id="sAZUqS_JhSlkfdYbxXpa-9" value="" style="swimlane;swimlaneHead=0;swimlaneBody=0;fontStyle=0;connectable=0;strokeColor=inherit;fillColor=none;startSize=0;collapsible=0;recursiveResize=0;expand=0;fontSize=16;" parent="sAZUqS_JhSlkfdYbxXpa-6" vertex="1">
          <mxGeometry x="400" width="130" height="120" as="geometry">
            <mxRectangle width="130" height="120" as="alternateBounds" />
          </mxGeometry>
        </mxCell>
        <mxCell id="2pi5OKYb4kzrXLW6N9wi-75" value="&lt;div&gt;O&lt;/div&gt;" style="text;html=1;align=center;verticalAlign=middle;resizable=0;points=[];autosize=1;strokeColor=none;fillColor=none;" vertex="1" parent="sAZUqS_JhSlkfdYbxXpa-9">
          <mxGeometry x="50" y="45" width="30" height="30" as="geometry" />
        </mxCell>
        <mxCell id="sAZUqS_JhSlkfdYbxXpa-54" style="swimlane;swimlaneHead=0;swimlaneBody=0;fontStyle=0;connectable=0;strokeColor=inherit;fillColor=none;startSize=0;collapsible=0;recursiveResize=0;expand=0;fontSize=16;" parent="sAZUqS_JhSlkfdYbxXpa-6" vertex="1">
          <mxGeometry x="530" width="180" height="120" as="geometry">
            <mxRectangle width="180" height="120" as="alternateBounds" />
          </mxGeometry>
        </mxCell>
        <mxCell id="sAZUqS_JhSlkfdYbxXpa-57" style="swimlane;swimlaneHead=0;swimlaneBody=0;fontStyle=0;connectable=0;strokeColor=inherit;fillColor=none;startSize=0;collapsible=0;recursiveResize=0;expand=0;fontSize=16;" parent="sAZUqS_JhSlkfdYbxXpa-6" vertex="1">
          <mxGeometry x="710" width="150" height="120" as="geometry">
            <mxRectangle width="150" height="120" as="alternateBounds" />
          </mxGeometry>
        </mxCell>
        <mxCell id="sAZUqS_JhSlkfdYbxXpa-60" style="swimlane;swimlaneHead=0;swimlaneBody=0;fontStyle=0;connectable=0;strokeColor=inherit;fillColor=none;startSize=0;collapsible=0;recursiveResize=0;expand=0;fontSize=16;" parent="sAZUqS_JhSlkfdYbxXpa-6" vertex="1">
          <mxGeometry x="860" width="170" height="120" as="geometry">
            <mxRectangle width="170" height="120" as="alternateBounds" />
          </mxGeometry>
        </mxCell>
        <mxCell id="sAZUqS_JhSlkfdYbxXpa-63" style="swimlane;swimlaneHead=0;swimlaneBody=0;fontStyle=0;connectable=0;strokeColor=inherit;fillColor=none;startSize=0;collapsible=0;recursiveResize=0;expand=0;fontSize=16;" parent="sAZUqS_JhSlkfdYbxXpa-6" vertex="1">
          <mxGeometry x="1030" width="360" height="120" as="geometry">
            <mxRectangle width="360" height="120" as="alternateBounds" />
          </mxGeometry>
        </mxCell>
        <mxCell id="2pi5OKYb4kzrXLW6N9wi-67" value="&lt;div&gt;OMT&lt;/div&gt;" style="text;html=1;align=center;verticalAlign=middle;resizable=0;points=[];autosize=1;strokeColor=none;fillColor=none;" vertex="1" parent="sAZUqS_JhSlkfdYbxXpa-63">
          <mxGeometry x="155" y="45" width="50" height="30" as="geometry" />
        </mxCell>
        <mxCell id="2pi5OKYb4kzrXLW6N9wi-50" style="swimlane;swimlaneHead=0;swimlaneBody=0;fontStyle=0;connectable=0;strokeColor=inherit;fillColor=none;startSize=0;collapsible=0;recursiveResize=0;expand=0;fontSize=16;" vertex="1" parent="sAZUqS_JhSlkfdYbxXpa-6">
          <mxGeometry x="1390" width="160" height="120" as="geometry">
            <mxRectangle width="160" height="120" as="alternateBounds" />
          </mxGeometry>
        </mxCell>
        <mxCell id="2pi5OKYb4kzrXLW6N9wi-89" value="&lt;div&gt;O&lt;/div&gt;" style="text;html=1;align=center;verticalAlign=middle;resizable=0;points=[];autosize=1;strokeColor=none;fillColor=none;" vertex="1" parent="2pi5OKYb4kzrXLW6N9wi-50">
          <mxGeometry x="65" y="45" width="30" height="30" as="geometry" />
        </mxCell>
        <mxCell id="sAZUqS_JhSlkfdYbxXpa-10" value="Jegy" style="shape=tableRow;horizontal=0;swimlaneHead=0;swimlaneBody=0;top=0;left=0;strokeColor=inherit;bottom=0;right=0;dropTarget=0;fontStyle=0;fillColor=none;points=[[0,0.5],[1,0.5]];portConstraint=eastwest;startSize=40;collapsible=0;recursiveResize=0;expand=0;fontSize=16;" parent="sAZUqS_JhSlkfdYbxXpa-1" vertex="1">
          <mxGeometry y="280" width="1550" height="120" as="geometry" />
        </mxCell>
        <mxCell id="sAZUqS_JhSlkfdYbxXpa-11" value="" style="swimlane;swimlaneHead=0;swimlaneBody=0;fontStyle=0;connectable=0;strokeColor=inherit;fillColor=none;startSize=0;collapsible=0;recursiveResize=0;expand=0;fontSize=16;" parent="sAZUqS_JhSlkfdYbxXpa-10" vertex="1">
          <mxGeometry x="40" width="196" height="120" as="geometry">
            <mxRectangle width="196" height="120" as="alternateBounds" />
          </mxGeometry>
        </mxCell>
        <mxCell id="sAZUqS_JhSlkfdYbxXpa-12" value="" style="swimlane;swimlaneHead=0;swimlaneBody=0;fontStyle=0;connectable=0;strokeColor=inherit;fillColor=none;startSize=0;collapsible=0;recursiveResize=0;expand=0;fontSize=16;" parent="sAZUqS_JhSlkfdYbxXpa-10" vertex="1">
          <mxGeometry x="236" width="164" height="120" as="geometry">
            <mxRectangle width="164" height="120" as="alternateBounds" />
          </mxGeometry>
        </mxCell>
        <mxCell id="sAZUqS_JhSlkfdYbxXpa-13" value="" style="swimlane;swimlaneHead=0;swimlaneBody=0;fontStyle=0;connectable=0;strokeColor=inherit;fillColor=none;startSize=0;collapsible=0;recursiveResize=0;expand=0;fontSize=16;" parent="sAZUqS_JhSlkfdYbxXpa-10" vertex="1">
          <mxGeometry x="400" width="130" height="120" as="geometry">
            <mxRectangle width="130" height="120" as="alternateBounds" />
          </mxGeometry>
        </mxCell>
        <mxCell id="sAZUqS_JhSlkfdYbxXpa-55" style="swimlane;swimlaneHead=0;swimlaneBody=0;fontStyle=0;connectable=0;strokeColor=inherit;fillColor=none;startSize=0;collapsible=0;recursiveResize=0;expand=0;fontSize=16;" parent="sAZUqS_JhSlkfdYbxXpa-10" vertex="1">
          <mxGeometry x="530" width="180" height="120" as="geometry">
            <mxRectangle width="180" height="120" as="alternateBounds" />
          </mxGeometry>
        </mxCell>
        <mxCell id="sAZUqS_JhSlkfdYbxXpa-58" style="swimlane;swimlaneHead=0;swimlaneBody=0;fontStyle=0;connectable=0;strokeColor=inherit;fillColor=none;startSize=0;collapsible=0;recursiveResize=0;expand=0;fontSize=16;" parent="sAZUqS_JhSlkfdYbxXpa-10" vertex="1">
          <mxGeometry x="710" width="150" height="120" as="geometry">
            <mxRectangle width="150" height="120" as="alternateBounds" />
          </mxGeometry>
        </mxCell>
        <mxCell id="sAZUqS_JhSlkfdYbxXpa-74" value="&lt;div&gt;L&lt;/div&gt;" style="text;html=1;align=center;verticalAlign=middle;resizable=0;points=[];autosize=1;strokeColor=none;fillColor=none;" parent="sAZUqS_JhSlkfdYbxXpa-58" vertex="1">
          <mxGeometry x="60" y="45" width="30" height="30" as="geometry" />
        </mxCell>
        <mxCell id="sAZUqS_JhSlkfdYbxXpa-61" style="swimlane;swimlaneHead=0;swimlaneBody=0;fontStyle=0;connectable=0;strokeColor=inherit;fillColor=none;startSize=0;collapsible=0;recursiveResize=0;expand=0;fontSize=16;" parent="sAZUqS_JhSlkfdYbxXpa-10" vertex="1">
          <mxGeometry x="860" width="170" height="120" as="geometry">
            <mxRectangle width="170" height="120" as="alternateBounds" />
          </mxGeometry>
        </mxCell>
        <mxCell id="sAZUqS_JhSlkfdYbxXpa-75" value="&lt;div&gt;O&lt;/div&gt;" style="text;html=1;align=center;verticalAlign=middle;resizable=0;points=[];autosize=1;strokeColor=none;fillColor=none;" parent="sAZUqS_JhSlkfdYbxXpa-61" vertex="1">
          <mxGeometry x="70" y="45" width="30" height="30" as="geometry" />
        </mxCell>
        <mxCell id="sAZUqS_JhSlkfdYbxXpa-64" style="swimlane;swimlaneHead=0;swimlaneBody=0;fontStyle=0;connectable=0;strokeColor=inherit;fillColor=none;startSize=0;collapsible=0;recursiveResize=0;expand=0;fontSize=16;" parent="sAZUqS_JhSlkfdYbxXpa-10" vertex="1">
          <mxGeometry x="1030" width="360" height="120" as="geometry">
            <mxRectangle width="360" height="120" as="alternateBounds" />
          </mxGeometry>
        </mxCell>
        <mxCell id="2pi5OKYb4kzrXLW6N9wi-68" value="&lt;div&gt;OT&lt;/div&gt;" style="text;html=1;align=center;verticalAlign=middle;resizable=0;points=[];autosize=1;strokeColor=none;fillColor=none;" vertex="1" parent="sAZUqS_JhSlkfdYbxXpa-64">
          <mxGeometry x="160" y="45" width="40" height="30" as="geometry" />
        </mxCell>
        <mxCell id="2pi5OKYb4kzrXLW6N9wi-51" style="swimlane;swimlaneHead=0;swimlaneBody=0;fontStyle=0;connectable=0;strokeColor=inherit;fillColor=none;startSize=0;collapsible=0;recursiveResize=0;expand=0;fontSize=16;" vertex="1" parent="sAZUqS_JhSlkfdYbxXpa-10">
          <mxGeometry x="1390" width="160" height="120" as="geometry">
            <mxRectangle width="160" height="120" as="alternateBounds" />
          </mxGeometry>
        </mxCell>
        <mxCell id="2pi5OKYb4kzrXLW6N9wi-88" value="&lt;div&gt;O&lt;/div&gt;" style="text;html=1;align=center;verticalAlign=middle;resizable=0;points=[];autosize=1;strokeColor=none;fillColor=none;" vertex="1" parent="2pi5OKYb4kzrXLW6N9wi-51">
          <mxGeometry x="65" y="45" width="30" height="30" as="geometry" />
        </mxCell>
        <mxCell id="2pi5OKYb4kzrXLW6N9wi-9" value="Kedvezmény" style="shape=tableRow;horizontal=0;swimlaneHead=0;swimlaneBody=0;top=0;left=0;strokeColor=inherit;bottom=0;right=0;dropTarget=0;fontStyle=0;fillColor=none;points=[[0,0.5],[1,0.5]];portConstraint=eastwest;startSize=40;collapsible=0;recursiveResize=0;expand=0;fontSize=16;" vertex="1" parent="sAZUqS_JhSlkfdYbxXpa-1">
          <mxGeometry y="400" width="1550" height="120" as="geometry" />
        </mxCell>
        <mxCell id="2pi5OKYb4kzrXLW6N9wi-10" style="swimlane;swimlaneHead=0;swimlaneBody=0;fontStyle=0;connectable=0;strokeColor=inherit;fillColor=none;startSize=0;collapsible=0;recursiveResize=0;expand=0;fontSize=16;" vertex="1" parent="2pi5OKYb4kzrXLW6N9wi-9">
          <mxGeometry x="40" width="196" height="120" as="geometry">
            <mxRectangle width="196" height="120" as="alternateBounds" />
          </mxGeometry>
        </mxCell>
        <mxCell id="2pi5OKYb4kzrXLW6N9wi-11" style="swimlane;swimlaneHead=0;swimlaneBody=0;fontStyle=0;connectable=0;strokeColor=inherit;fillColor=none;startSize=0;collapsible=0;recursiveResize=0;expand=0;fontSize=16;" vertex="1" parent="2pi5OKYb4kzrXLW6N9wi-9">
          <mxGeometry x="236" width="164" height="120" as="geometry">
            <mxRectangle width="164" height="120" as="alternateBounds" />
          </mxGeometry>
        </mxCell>
        <mxCell id="2pi5OKYb4kzrXLW6N9wi-12" style="swimlane;swimlaneHead=0;swimlaneBody=0;fontStyle=0;connectable=0;strokeColor=inherit;fillColor=none;startSize=0;collapsible=0;recursiveResize=0;expand=0;fontSize=16;" vertex="1" parent="2pi5OKYb4kzrXLW6N9wi-9">
          <mxGeometry x="400" width="130" height="120" as="geometry">
            <mxRectangle width="130" height="120" as="alternateBounds" />
          </mxGeometry>
        </mxCell>
        <mxCell id="2pi5OKYb4kzrXLW6N9wi-13" style="swimlane;swimlaneHead=0;swimlaneBody=0;fontStyle=0;connectable=0;strokeColor=inherit;fillColor=none;startSize=0;collapsible=0;recursiveResize=0;expand=0;fontSize=16;" vertex="1" parent="2pi5OKYb4kzrXLW6N9wi-9">
          <mxGeometry x="530" width="180" height="120" as="geometry">
            <mxRectangle width="180" height="120" as="alternateBounds" />
          </mxGeometry>
        </mxCell>
        <mxCell id="2pi5OKYb4kzrXLW6N9wi-14" style="swimlane;swimlaneHead=0;swimlaneBody=0;fontStyle=0;connectable=0;strokeColor=inherit;fillColor=none;startSize=0;collapsible=0;recursiveResize=0;expand=0;fontSize=16;" vertex="1" parent="2pi5OKYb4kzrXLW6N9wi-9">
          <mxGeometry x="710" width="150" height="120" as="geometry">
            <mxRectangle width="150" height="120" as="alternateBounds" />
          </mxGeometry>
        </mxCell>
        <mxCell id="2pi5OKYb4kzrXLW6N9wi-78" value="&lt;div&gt;O&lt;/div&gt;" style="text;html=1;align=center;verticalAlign=middle;resizable=0;points=[];autosize=1;strokeColor=none;fillColor=none;" vertex="1" parent="2pi5OKYb4kzrXLW6N9wi-14">
          <mxGeometry x="60" y="45" width="30" height="30" as="geometry" />
        </mxCell>
        <mxCell id="2pi5OKYb4kzrXLW6N9wi-15" style="swimlane;swimlaneHead=0;swimlaneBody=0;fontStyle=0;connectable=0;strokeColor=inherit;fillColor=none;startSize=0;collapsible=0;recursiveResize=0;expand=0;fontSize=16;" vertex="1" parent="2pi5OKYb4kzrXLW6N9wi-9">
          <mxGeometry x="860" width="170" height="120" as="geometry">
            <mxRectangle width="170" height="120" as="alternateBounds" />
          </mxGeometry>
        </mxCell>
        <mxCell id="2pi5OKYb4kzrXLW6N9wi-16" style="swimlane;swimlaneHead=0;swimlaneBody=0;fontStyle=0;connectable=0;strokeColor=inherit;fillColor=none;startSize=0;collapsible=0;recursiveResize=0;expand=0;fontSize=16;" vertex="1" parent="2pi5OKYb4kzrXLW6N9wi-9">
          <mxGeometry x="1030" width="360" height="120" as="geometry">
            <mxRectangle width="360" height="120" as="alternateBounds" />
          </mxGeometry>
        </mxCell>
        <mxCell id="2pi5OKYb4kzrXLW6N9wi-69" value="&lt;div&gt;LOMT&lt;/div&gt;" style="text;html=1;align=center;verticalAlign=middle;resizable=0;points=[];autosize=1;strokeColor=none;fillColor=none;" vertex="1" parent="2pi5OKYb4kzrXLW6N9wi-16">
          <mxGeometry x="150" y="45" width="60" height="30" as="geometry" />
        </mxCell>
        <mxCell id="2pi5OKYb4kzrXLW6N9wi-52" style="swimlane;swimlaneHead=0;swimlaneBody=0;fontStyle=0;connectable=0;strokeColor=inherit;fillColor=none;startSize=0;collapsible=0;recursiveResize=0;expand=0;fontSize=16;" vertex="1" parent="2pi5OKYb4kzrXLW6N9wi-9">
          <mxGeometry x="1390" width="160" height="120" as="geometry">
            <mxRectangle width="160" height="120" as="alternateBounds" />
          </mxGeometry>
        </mxCell>
        <mxCell id="2pi5OKYb4kzrXLW6N9wi-41" value="Szerelvény" style="shape=tableRow;horizontal=0;swimlaneHead=0;swimlaneBody=0;top=0;left=0;strokeColor=inherit;bottom=0;right=0;dropTarget=0;fontStyle=0;fillColor=none;points=[[0,0.5],[1,0.5]];portConstraint=eastwest;startSize=40;collapsible=0;recursiveResize=0;expand=0;fontSize=16;" vertex="1" parent="sAZUqS_JhSlkfdYbxXpa-1">
          <mxGeometry y="520" width="1550" height="120" as="geometry" />
        </mxCell>
        <mxCell id="2pi5OKYb4kzrXLW6N9wi-42" style="swimlane;swimlaneHead=0;swimlaneBody=0;fontStyle=0;connectable=0;strokeColor=inherit;fillColor=none;startSize=0;collapsible=0;recursiveResize=0;expand=0;fontSize=16;" vertex="1" parent="2pi5OKYb4kzrXLW6N9wi-41">
          <mxGeometry x="40" width="196" height="120" as="geometry">
            <mxRectangle width="196" height="120" as="alternateBounds" />
          </mxGeometry>
        </mxCell>
        <mxCell id="2pi5OKYb4kzrXLW6N9wi-43" style="swimlane;swimlaneHead=0;swimlaneBody=0;fontStyle=0;connectable=0;strokeColor=inherit;fillColor=none;startSize=0;collapsible=0;recursiveResize=0;expand=0;fontSize=16;" vertex="1" parent="2pi5OKYb4kzrXLW6N9wi-41">
          <mxGeometry x="236" width="164" height="120" as="geometry">
            <mxRectangle width="164" height="120" as="alternateBounds" />
          </mxGeometry>
        </mxCell>
        <mxCell id="2pi5OKYb4kzrXLW6N9wi-44" style="swimlane;swimlaneHead=0;swimlaneBody=0;fontStyle=0;connectable=0;strokeColor=inherit;fillColor=none;startSize=0;collapsible=0;recursiveResize=0;expand=0;fontSize=16;" vertex="1" parent="2pi5OKYb4kzrXLW6N9wi-41">
          <mxGeometry x="400" width="130" height="120" as="geometry">
            <mxRectangle width="130" height="120" as="alternateBounds" />
          </mxGeometry>
        </mxCell>
        <mxCell id="2pi5OKYb4kzrXLW6N9wi-45" style="swimlane;swimlaneHead=0;swimlaneBody=0;fontStyle=0;connectable=0;strokeColor=inherit;fillColor=none;startSize=0;collapsible=0;recursiveResize=0;expand=0;fontSize=16;" vertex="1" parent="2pi5OKYb4kzrXLW6N9wi-41">
          <mxGeometry x="530" width="180" height="120" as="geometry">
            <mxRectangle width="180" height="120" as="alternateBounds" />
          </mxGeometry>
        </mxCell>
        <mxCell id="2pi5OKYb4kzrXLW6N9wi-46" style="swimlane;swimlaneHead=0;swimlaneBody=0;fontStyle=0;connectable=0;strokeColor=inherit;fillColor=none;startSize=0;collapsible=0;recursiveResize=0;expand=0;fontSize=16;" vertex="1" parent="2pi5OKYb4kzrXLW6N9wi-41">
          <mxGeometry x="710" width="150" height="120" as="geometry">
            <mxRectangle width="150" height="120" as="alternateBounds" />
          </mxGeometry>
        </mxCell>
        <mxCell id="2pi5OKYb4kzrXLW6N9wi-47" style="swimlane;swimlaneHead=0;swimlaneBody=0;fontStyle=0;connectable=0;strokeColor=inherit;fillColor=none;startSize=0;collapsible=0;recursiveResize=0;expand=0;fontSize=16;" vertex="1" parent="2pi5OKYb4kzrXLW6N9wi-41">
          <mxGeometry x="860" width="170" height="120" as="geometry">
            <mxRectangle width="170" height="120" as="alternateBounds" />
          </mxGeometry>
        </mxCell>
        <mxCell id="2pi5OKYb4kzrXLW6N9wi-48" style="swimlane;swimlaneHead=0;swimlaneBody=0;fontStyle=0;connectable=0;strokeColor=inherit;fillColor=none;startSize=0;collapsible=0;recursiveResize=0;expand=0;fontSize=16;" vertex="1" parent="2pi5OKYb4kzrXLW6N9wi-41">
          <mxGeometry x="1030" width="360" height="120" as="geometry">
            <mxRectangle width="360" height="120" as="alternateBounds" />
          </mxGeometry>
        </mxCell>
        <mxCell id="2pi5OKYb4kzrXLW6N9wi-70" value="&lt;div&gt;L&lt;span style=&quot;background-color: transparent; color: light-dark(rgb(0, 0, 0), rgb(255, 255, 255));&quot;&gt;OMT&lt;/span&gt;&lt;/div&gt;" style="text;html=1;align=center;verticalAlign=middle;resizable=0;points=[];autosize=1;strokeColor=none;fillColor=none;" vertex="1" parent="2pi5OKYb4kzrXLW6N9wi-48">
          <mxGeometry x="150" y="45" width="60" height="30" as="geometry" />
        </mxCell>
        <mxCell id="2pi5OKYb4kzrXLW6N9wi-53" style="swimlane;swimlaneHead=0;swimlaneBody=0;fontStyle=0;connectable=0;strokeColor=inherit;fillColor=none;startSize=0;collapsible=0;recursiveResize=0;expand=0;fontSize=16;" vertex="1" parent="2pi5OKYb4kzrXLW6N9wi-41">
          <mxGeometry x="1390" width="160" height="120" as="geometry">
            <mxRectangle width="160" height="120" as="alternateBounds" />
          </mxGeometry>
        </mxCell>
        <mxCell id="2pi5OKYb4kzrXLW6N9wi-90" value="&lt;div&gt;O&lt;/div&gt;" style="text;html=1;align=center;verticalAlign=middle;resizable=0;points=[];autosize=1;strokeColor=none;fillColor=none;" vertex="1" parent="2pi5OKYb4kzrXLW6N9wi-53">
          <mxGeometry x="65" y="45" width="30" height="30" as="geometry" />
        </mxCell>
        <mxCell id="2pi5OKYb4kzrXLW6N9wi-33" value="Járat" style="shape=tableRow;horizontal=0;swimlaneHead=0;swimlaneBody=0;top=0;left=0;strokeColor=inherit;bottom=0;right=0;dropTarget=0;fontStyle=0;fillColor=none;points=[[0,0.5],[1,0.5]];portConstraint=eastwest;startSize=40;collapsible=0;recursiveResize=0;expand=0;fontSize=16;" vertex="1" parent="sAZUqS_JhSlkfdYbxXpa-1">
          <mxGeometry y="640" width="1550" height="120" as="geometry" />
        </mxCell>
        <mxCell id="2pi5OKYb4kzrXLW6N9wi-34" style="swimlane;swimlaneHead=0;swimlaneBody=0;fontStyle=0;connectable=0;strokeColor=inherit;fillColor=none;startSize=0;collapsible=0;recursiveResize=0;expand=0;fontSize=16;" vertex="1" parent="2pi5OKYb4kzrXLW6N9wi-33">
          <mxGeometry x="40" width="196" height="120" as="geometry">
            <mxRectangle width="196" height="120" as="alternateBounds" />
          </mxGeometry>
        </mxCell>
        <mxCell id="2pi5OKYb4kzrXLW6N9wi-81" value="&lt;div&gt;O&lt;/div&gt;" style="text;html=1;align=center;verticalAlign=middle;resizable=0;points=[];autosize=1;strokeColor=none;fillColor=none;" vertex="1" parent="2pi5OKYb4kzrXLW6N9wi-34">
          <mxGeometry x="83" y="45" width="30" height="30" as="geometry" />
        </mxCell>
        <mxCell id="2pi5OKYb4kzrXLW6N9wi-35" style="swimlane;swimlaneHead=0;swimlaneBody=0;fontStyle=0;connectable=0;strokeColor=inherit;fillColor=none;startSize=0;collapsible=0;recursiveResize=0;expand=0;fontSize=16;" vertex="1" parent="2pi5OKYb4kzrXLW6N9wi-33">
          <mxGeometry x="236" width="164" height="120" as="geometry">
            <mxRectangle width="164" height="120" as="alternateBounds" />
          </mxGeometry>
        </mxCell>
        <mxCell id="2pi5OKYb4kzrXLW6N9wi-36" style="swimlane;swimlaneHead=0;swimlaneBody=0;fontStyle=0;connectable=0;strokeColor=inherit;fillColor=none;startSize=0;collapsible=0;recursiveResize=0;expand=0;fontSize=16;" vertex="1" parent="2pi5OKYb4kzrXLW6N9wi-33">
          <mxGeometry x="400" width="130" height="120" as="geometry">
            <mxRectangle width="130" height="120" as="alternateBounds" />
          </mxGeometry>
        </mxCell>
        <mxCell id="2pi5OKYb4kzrXLW6N9wi-37" style="swimlane;swimlaneHead=0;swimlaneBody=0;fontStyle=0;connectable=0;strokeColor=inherit;fillColor=none;startSize=0;collapsible=0;recursiveResize=0;expand=0;fontSize=16;" vertex="1" parent="2pi5OKYb4kzrXLW6N9wi-33">
          <mxGeometry x="530" width="180" height="120" as="geometry">
            <mxRectangle width="180" height="120" as="alternateBounds" />
          </mxGeometry>
        </mxCell>
        <mxCell id="2pi5OKYb4kzrXLW6N9wi-84" value="&lt;div&gt;O&lt;/div&gt;" style="text;html=1;align=center;verticalAlign=middle;resizable=0;points=[];autosize=1;strokeColor=none;fillColor=none;" vertex="1" parent="2pi5OKYb4kzrXLW6N9wi-37">
          <mxGeometry x="75" y="45" width="30" height="30" as="geometry" />
        </mxCell>
        <mxCell id="2pi5OKYb4kzrXLW6N9wi-38" style="swimlane;swimlaneHead=0;swimlaneBody=0;fontStyle=0;connectable=0;strokeColor=inherit;fillColor=none;startSize=0;collapsible=0;recursiveResize=0;expand=0;fontSize=16;" vertex="1" parent="2pi5OKYb4kzrXLW6N9wi-33">
          <mxGeometry x="710" width="150" height="120" as="geometry">
            <mxRectangle width="150" height="120" as="alternateBounds" />
          </mxGeometry>
        </mxCell>
        <mxCell id="2pi5OKYb4kzrXLW6N9wi-79" value="&lt;div&gt;O&lt;/div&gt;" style="text;html=1;align=center;verticalAlign=middle;resizable=0;points=[];autosize=1;strokeColor=none;fillColor=none;" vertex="1" parent="2pi5OKYb4kzrXLW6N9wi-38">
          <mxGeometry x="60" y="45" width="30" height="30" as="geometry" />
        </mxCell>
        <mxCell id="2pi5OKYb4kzrXLW6N9wi-39" style="swimlane;swimlaneHead=0;swimlaneBody=0;fontStyle=0;connectable=0;strokeColor=inherit;fillColor=none;startSize=0;collapsible=0;recursiveResize=0;expand=0;fontSize=16;" vertex="1" parent="2pi5OKYb4kzrXLW6N9wi-33">
          <mxGeometry x="860" width="170" height="120" as="geometry">
            <mxRectangle width="170" height="120" as="alternateBounds" />
          </mxGeometry>
        </mxCell>
        <mxCell id="2pi5OKYb4kzrXLW6N9wi-40" style="swimlane;swimlaneHead=0;swimlaneBody=0;fontStyle=0;connectable=0;strokeColor=inherit;fillColor=none;startSize=0;collapsible=0;recursiveResize=0;expand=0;fontSize=16;" vertex="1" parent="2pi5OKYb4kzrXLW6N9wi-33">
          <mxGeometry x="1030" width="360" height="120" as="geometry">
            <mxRectangle width="360" height="120" as="alternateBounds" />
          </mxGeometry>
        </mxCell>
        <mxCell id="2pi5OKYb4kzrXLW6N9wi-71" value="&lt;div&gt;LOMT&lt;/div&gt;" style="text;html=1;align=center;verticalAlign=middle;resizable=0;points=[];autosize=1;strokeColor=none;fillColor=none;" vertex="1" parent="2pi5OKYb4kzrXLW6N9wi-40">
          <mxGeometry x="150" y="45" width="60" height="30" as="geometry" />
        </mxCell>
        <mxCell id="2pi5OKYb4kzrXLW6N9wi-54" style="swimlane;swimlaneHead=0;swimlaneBody=0;fontStyle=0;connectable=0;strokeColor=inherit;fillColor=none;startSize=0;collapsible=0;recursiveResize=0;expand=0;fontSize=16;" vertex="1" parent="2pi5OKYb4kzrXLW6N9wi-33">
          <mxGeometry x="1390" width="160" height="120" as="geometry">
            <mxRectangle width="160" height="120" as="alternateBounds" />
          </mxGeometry>
        </mxCell>
        <mxCell id="2pi5OKYb4kzrXLW6N9wi-91" value="&lt;div&gt;O&lt;/div&gt;" style="text;html=1;align=center;verticalAlign=middle;resizable=0;points=[];autosize=1;strokeColor=none;fillColor=none;" vertex="1" parent="2pi5OKYb4kzrXLW6N9wi-54">
          <mxGeometry x="65" y="45" width="30" height="30" as="geometry" />
        </mxCell>
        <mxCell id="2pi5OKYb4kzrXLW6N9wi-25" value="Járat-Állomás" style="shape=tableRow;horizontal=0;swimlaneHead=0;swimlaneBody=0;top=0;left=0;strokeColor=inherit;bottom=0;right=0;dropTarget=0;fontStyle=0;fillColor=none;points=[[0,0.5],[1,0.5]];portConstraint=eastwest;startSize=40;collapsible=0;recursiveResize=0;expand=0;fontSize=16;" vertex="1" parent="sAZUqS_JhSlkfdYbxXpa-1">
          <mxGeometry y="760" width="1550" height="120" as="geometry" />
        </mxCell>
        <mxCell id="2pi5OKYb4kzrXLW6N9wi-26" style="swimlane;swimlaneHead=0;swimlaneBody=0;fontStyle=0;connectable=0;strokeColor=inherit;fillColor=none;startSize=0;collapsible=0;recursiveResize=0;expand=0;fontSize=16;" vertex="1" parent="2pi5OKYb4kzrXLW6N9wi-25">
          <mxGeometry x="40" width="196" height="120" as="geometry">
            <mxRectangle width="196" height="120" as="alternateBounds" />
          </mxGeometry>
        </mxCell>
        <mxCell id="2pi5OKYb4kzrXLW6N9wi-80" value="&lt;div&gt;O&lt;/div&gt;" style="text;html=1;align=center;verticalAlign=middle;resizable=0;points=[];autosize=1;strokeColor=none;fillColor=none;" vertex="1" parent="2pi5OKYb4kzrXLW6N9wi-26">
          <mxGeometry x="83" y="45" width="30" height="30" as="geometry" />
        </mxCell>
        <mxCell id="2pi5OKYb4kzrXLW6N9wi-27" style="swimlane;swimlaneHead=0;swimlaneBody=0;fontStyle=0;connectable=0;strokeColor=inherit;fillColor=none;startSize=0;collapsible=0;recursiveResize=0;expand=0;fontSize=16;" vertex="1" parent="2pi5OKYb4kzrXLW6N9wi-25">
          <mxGeometry x="236" width="164" height="120" as="geometry">
            <mxRectangle width="164" height="120" as="alternateBounds" />
          </mxGeometry>
        </mxCell>
        <mxCell id="2pi5OKYb4kzrXLW6N9wi-28" style="swimlane;swimlaneHead=0;swimlaneBody=0;fontStyle=0;connectable=0;strokeColor=inherit;fillColor=none;startSize=0;collapsible=0;recursiveResize=0;expand=0;fontSize=16;" vertex="1" parent="2pi5OKYb4kzrXLW6N9wi-25">
          <mxGeometry x="400" width="130" height="120" as="geometry">
            <mxRectangle width="130" height="120" as="alternateBounds" />
          </mxGeometry>
        </mxCell>
        <mxCell id="2pi5OKYb4kzrXLW6N9wi-29" style="swimlane;swimlaneHead=0;swimlaneBody=0;fontStyle=0;connectable=0;strokeColor=inherit;fillColor=none;startSize=0;collapsible=0;recursiveResize=0;expand=0;fontSize=16;" vertex="1" parent="2pi5OKYb4kzrXLW6N9wi-25">
          <mxGeometry x="530" width="180" height="120" as="geometry">
            <mxRectangle width="180" height="120" as="alternateBounds" />
          </mxGeometry>
        </mxCell>
        <mxCell id="2pi5OKYb4kzrXLW6N9wi-85" value="&lt;div&gt;O&lt;/div&gt;" style="text;html=1;align=center;verticalAlign=middle;resizable=0;points=[];autosize=1;strokeColor=none;fillColor=none;" vertex="1" parent="2pi5OKYb4kzrXLW6N9wi-29">
          <mxGeometry x="75" y="45" width="30" height="30" as="geometry" />
        </mxCell>
        <mxCell id="2pi5OKYb4kzrXLW6N9wi-30" style="swimlane;swimlaneHead=0;swimlaneBody=0;fontStyle=0;connectable=0;strokeColor=inherit;fillColor=none;startSize=0;collapsible=0;recursiveResize=0;expand=0;fontSize=16;" vertex="1" parent="2pi5OKYb4kzrXLW6N9wi-25">
          <mxGeometry x="710" width="150" height="120" as="geometry">
            <mxRectangle width="150" height="120" as="alternateBounds" />
          </mxGeometry>
        </mxCell>
        <mxCell id="2pi5OKYb4kzrXLW6N9wi-31" style="swimlane;swimlaneHead=0;swimlaneBody=0;fontStyle=0;connectable=0;strokeColor=inherit;fillColor=none;startSize=0;collapsible=0;recursiveResize=0;expand=0;fontSize=16;" vertex="1" parent="2pi5OKYb4kzrXLW6N9wi-25">
          <mxGeometry x="860" width="170" height="120" as="geometry">
            <mxRectangle width="170" height="120" as="alternateBounds" />
          </mxGeometry>
        </mxCell>
        <mxCell id="2pi5OKYb4kzrXLW6N9wi-32" style="swimlane;swimlaneHead=0;swimlaneBody=0;fontStyle=0;connectable=0;strokeColor=inherit;fillColor=none;startSize=0;collapsible=0;recursiveResize=0;expand=0;fontSize=16;" vertex="1" parent="2pi5OKYb4kzrXLW6N9wi-25">
          <mxGeometry x="1030" width="360" height="120" as="geometry">
            <mxRectangle width="360" height="120" as="alternateBounds" />
          </mxGeometry>
        </mxCell>
        <mxCell id="2pi5OKYb4kzrXLW6N9wi-72" value="&lt;div&gt;LOMT&lt;/div&gt;" style="text;html=1;align=center;verticalAlign=middle;resizable=0;points=[];autosize=1;strokeColor=none;fillColor=none;" vertex="1" parent="2pi5OKYb4kzrXLW6N9wi-32">
          <mxGeometry x="150" y="45" width="60" height="30" as="geometry" />
        </mxCell>
        <mxCell id="2pi5OKYb4kzrXLW6N9wi-55" style="swimlane;swimlaneHead=0;swimlaneBody=0;fontStyle=0;connectable=0;strokeColor=inherit;fillColor=none;startSize=0;collapsible=0;recursiveResize=0;expand=0;fontSize=16;" vertex="1" parent="2pi5OKYb4kzrXLW6N9wi-25">
          <mxGeometry x="1390" width="160" height="120" as="geometry">
            <mxRectangle width="160" height="120" as="alternateBounds" />
          </mxGeometry>
        </mxCell>
        <mxCell id="2pi5OKYb4kzrXLW6N9wi-17" value="Állomás" style="shape=tableRow;horizontal=0;swimlaneHead=0;swimlaneBody=0;top=0;left=0;strokeColor=inherit;bottom=0;right=0;dropTarget=0;fontStyle=0;fillColor=none;points=[[0,0.5],[1,0.5]];portConstraint=eastwest;startSize=40;collapsible=0;recursiveResize=0;expand=0;fontSize=16;" vertex="1" parent="sAZUqS_JhSlkfdYbxXpa-1">
          <mxGeometry y="880" width="1550" height="120" as="geometry" />
        </mxCell>
        <mxCell id="2pi5OKYb4kzrXLW6N9wi-18" style="swimlane;swimlaneHead=0;swimlaneBody=0;fontStyle=0;connectable=0;strokeColor=inherit;fillColor=none;startSize=0;collapsible=0;recursiveResize=0;expand=0;fontSize=16;" vertex="1" parent="2pi5OKYb4kzrXLW6N9wi-17">
          <mxGeometry x="40" width="196" height="120" as="geometry">
            <mxRectangle width="196" height="120" as="alternateBounds" />
          </mxGeometry>
        </mxCell>
        <mxCell id="2pi5OKYb4kzrXLW6N9wi-82" value="&lt;div&gt;O&lt;/div&gt;" style="text;html=1;align=center;verticalAlign=middle;resizable=0;points=[];autosize=1;strokeColor=none;fillColor=none;" vertex="1" parent="2pi5OKYb4kzrXLW6N9wi-18">
          <mxGeometry x="83" y="45" width="30" height="30" as="geometry" />
        </mxCell>
        <mxCell id="2pi5OKYb4kzrXLW6N9wi-19" style="swimlane;swimlaneHead=0;swimlaneBody=0;fontStyle=0;connectable=0;strokeColor=inherit;fillColor=none;startSize=0;collapsible=0;recursiveResize=0;expand=0;fontSize=16;" vertex="1" parent="2pi5OKYb4kzrXLW6N9wi-17">
          <mxGeometry x="236" width="164" height="120" as="geometry">
            <mxRectangle width="164" height="120" as="alternateBounds" />
          </mxGeometry>
        </mxCell>
        <mxCell id="2pi5OKYb4kzrXLW6N9wi-20" style="swimlane;swimlaneHead=0;swimlaneBody=0;fontStyle=0;connectable=0;strokeColor=inherit;fillColor=none;startSize=0;collapsible=0;recursiveResize=0;expand=0;fontSize=16;" vertex="1" parent="2pi5OKYb4kzrXLW6N9wi-17">
          <mxGeometry x="400" width="130" height="120" as="geometry">
            <mxRectangle width="130" height="120" as="alternateBounds" />
          </mxGeometry>
        </mxCell>
        <mxCell id="2pi5OKYb4kzrXLW6N9wi-21" style="swimlane;swimlaneHead=0;swimlaneBody=0;fontStyle=0;connectable=0;strokeColor=inherit;fillColor=none;startSize=0;collapsible=0;recursiveResize=0;expand=0;fontSize=16;" vertex="1" parent="2pi5OKYb4kzrXLW6N9wi-17">
          <mxGeometry x="530" width="180" height="120" as="geometry">
            <mxRectangle width="180" height="120" as="alternateBounds" />
          </mxGeometry>
        </mxCell>
        <mxCell id="2pi5OKYb4kzrXLW6N9wi-86" value="&lt;div&gt;O&lt;/div&gt;" style="text;html=1;align=center;verticalAlign=middle;resizable=0;points=[];autosize=1;strokeColor=none;fillColor=none;" vertex="1" parent="2pi5OKYb4kzrXLW6N9wi-21">
          <mxGeometry x="75" y="45" width="30" height="30" as="geometry" />
        </mxCell>
        <mxCell id="2pi5OKYb4kzrXLW6N9wi-22" style="swimlane;swimlaneHead=0;swimlaneBody=0;fontStyle=0;connectable=0;strokeColor=inherit;fillColor=none;startSize=0;collapsible=0;recursiveResize=0;expand=0;fontSize=16;" vertex="1" parent="2pi5OKYb4kzrXLW6N9wi-17">
          <mxGeometry x="710" width="150" height="120" as="geometry">
            <mxRectangle width="150" height="120" as="alternateBounds" />
          </mxGeometry>
        </mxCell>
        <mxCell id="2pi5OKYb4kzrXLW6N9wi-23" style="swimlane;swimlaneHead=0;swimlaneBody=0;fontStyle=0;connectable=0;strokeColor=inherit;fillColor=none;startSize=0;collapsible=0;recursiveResize=0;expand=0;fontSize=16;" vertex="1" parent="2pi5OKYb4kzrXLW6N9wi-17">
          <mxGeometry x="860" width="170" height="120" as="geometry">
            <mxRectangle width="170" height="120" as="alternateBounds" />
          </mxGeometry>
        </mxCell>
        <mxCell id="2pi5OKYb4kzrXLW6N9wi-24" style="swimlane;swimlaneHead=0;swimlaneBody=0;fontStyle=0;connectable=0;strokeColor=inherit;fillColor=none;startSize=0;collapsible=0;recursiveResize=0;expand=0;fontSize=16;" vertex="1" parent="2pi5OKYb4kzrXLW6N9wi-17">
          <mxGeometry x="1030" width="360" height="120" as="geometry">
            <mxRectangle width="360" height="120" as="alternateBounds" />
          </mxGeometry>
        </mxCell>
        <mxCell id="2pi5OKYb4kzrXLW6N9wi-73" value="&lt;div&gt;LOMT&lt;/div&gt;" style="text;html=1;align=center;verticalAlign=middle;resizable=0;points=[];autosize=1;strokeColor=none;fillColor=none;" vertex="1" parent="2pi5OKYb4kzrXLW6N9wi-24">
          <mxGeometry x="150" y="45" width="60" height="30" as="geometry" />
        </mxCell>
        <mxCell id="2pi5OKYb4kzrXLW6N9wi-56" style="swimlane;swimlaneHead=0;swimlaneBody=0;fontStyle=0;connectable=0;strokeColor=inherit;fillColor=none;startSize=0;collapsible=0;recursiveResize=0;expand=0;fontSize=16;" vertex="1" parent="2pi5OKYb4kzrXLW6N9wi-17">
          <mxGeometry x="1390" width="160" height="120" as="geometry">
            <mxRectangle width="160" height="120" as="alternateBounds" />
          </mxGeometry>
        </mxCell>
        <mxCell id="2pi5OKYb4kzrXLW6N9wi-57" value="Vásárlás" style="shape=tableRow;horizontal=0;swimlaneHead=0;swimlaneBody=0;top=0;left=0;strokeColor=inherit;bottom=0;right=0;dropTarget=0;fontStyle=0;fillColor=none;points=[[0,0.5],[1,0.5]];portConstraint=eastwest;startSize=40;collapsible=0;recursiveResize=0;expand=0;fontSize=16;" vertex="1" parent="sAZUqS_JhSlkfdYbxXpa-1">
          <mxGeometry y="1000" width="1550" height="120" as="geometry" />
        </mxCell>
        <mxCell id="2pi5OKYb4kzrXLW6N9wi-58" style="swimlane;swimlaneHead=0;swimlaneBody=0;fontStyle=0;connectable=0;strokeColor=inherit;fillColor=none;startSize=0;collapsible=0;recursiveResize=0;expand=0;fontSize=16;" vertex="1" parent="2pi5OKYb4kzrXLW6N9wi-57">
          <mxGeometry x="40" width="196" height="120" as="geometry">
            <mxRectangle width="196" height="120" as="alternateBounds" />
          </mxGeometry>
        </mxCell>
        <mxCell id="2pi5OKYb4kzrXLW6N9wi-59" style="swimlane;swimlaneHead=0;swimlaneBody=0;fontStyle=0;connectable=0;strokeColor=inherit;fillColor=none;startSize=0;collapsible=0;recursiveResize=0;expand=0;fontSize=16;" vertex="1" parent="2pi5OKYb4kzrXLW6N9wi-57">
          <mxGeometry x="236" width="164" height="120" as="geometry">
            <mxRectangle width="164" height="120" as="alternateBounds" />
          </mxGeometry>
        </mxCell>
        <mxCell id="2pi5OKYb4kzrXLW6N9wi-60" style="swimlane;swimlaneHead=0;swimlaneBody=0;fontStyle=0;connectable=0;strokeColor=inherit;fillColor=none;startSize=0;collapsible=0;recursiveResize=0;expand=0;fontSize=16;" vertex="1" parent="2pi5OKYb4kzrXLW6N9wi-57">
          <mxGeometry x="400" width="130" height="120" as="geometry">
            <mxRectangle width="130" height="120" as="alternateBounds" />
          </mxGeometry>
        </mxCell>
        <mxCell id="2pi5OKYb4kzrXLW6N9wi-61" style="swimlane;swimlaneHead=0;swimlaneBody=0;fontStyle=0;connectable=0;strokeColor=inherit;fillColor=none;startSize=0;collapsible=0;recursiveResize=0;expand=0;fontSize=16;" vertex="1" parent="2pi5OKYb4kzrXLW6N9wi-57">
          <mxGeometry x="530" width="180" height="120" as="geometry">
            <mxRectangle width="180" height="120" as="alternateBounds" />
          </mxGeometry>
        </mxCell>
        <mxCell id="2pi5OKYb4kzrXLW6N9wi-62" style="swimlane;swimlaneHead=0;swimlaneBody=0;fontStyle=0;connectable=0;strokeColor=inherit;fillColor=none;startSize=0;collapsible=0;recursiveResize=0;expand=0;fontSize=16;" vertex="1" parent="2pi5OKYb4kzrXLW6N9wi-57">
          <mxGeometry x="710" width="150" height="120" as="geometry">
            <mxRectangle width="150" height="120" as="alternateBounds" />
          </mxGeometry>
        </mxCell>
        <mxCell id="2pi5OKYb4kzrXLW6N9wi-76" value="&lt;div&gt;L&lt;/div&gt;" style="text;html=1;align=center;verticalAlign=middle;resizable=0;points=[];autosize=1;strokeColor=none;fillColor=none;" vertex="1" parent="2pi5OKYb4kzrXLW6N9wi-62">
          <mxGeometry x="60" y="45" width="30" height="30" as="geometry" />
        </mxCell>
        <mxCell id="2pi5OKYb4kzrXLW6N9wi-63" style="swimlane;swimlaneHead=0;swimlaneBody=0;fontStyle=0;connectable=0;strokeColor=inherit;fillColor=none;startSize=0;collapsible=0;recursiveResize=0;expand=0;fontSize=16;" vertex="1" parent="2pi5OKYb4kzrXLW6N9wi-57">
          <mxGeometry x="860" width="170" height="120" as="geometry">
            <mxRectangle width="170" height="120" as="alternateBounds" />
          </mxGeometry>
        </mxCell>
        <mxCell id="2pi5OKYb4kzrXLW6N9wi-77" value="&lt;div&gt;O&lt;/div&gt;" style="text;html=1;align=center;verticalAlign=middle;resizable=0;points=[];autosize=1;strokeColor=none;fillColor=none;" vertex="1" parent="2pi5OKYb4kzrXLW6N9wi-63">
          <mxGeometry x="70" y="45" width="30" height="30" as="geometry" />
        </mxCell>
        <mxCell id="2pi5OKYb4kzrXLW6N9wi-64" style="swimlane;swimlaneHead=0;swimlaneBody=0;fontStyle=0;connectable=0;strokeColor=inherit;fillColor=none;startSize=0;collapsible=0;recursiveResize=0;expand=0;fontSize=16;" vertex="1" parent="2pi5OKYb4kzrXLW6N9wi-57">
          <mxGeometry x="1030" width="360" height="120" as="geometry">
            <mxRectangle width="360" height="120" as="alternateBounds" />
          </mxGeometry>
        </mxCell>
        <mxCell id="2pi5OKYb4kzrXLW6N9wi-74" value="&lt;div&gt;OT&lt;/div&gt;" style="text;html=1;align=center;verticalAlign=middle;resizable=0;points=[];autosize=1;strokeColor=none;fillColor=none;" vertex="1" parent="2pi5OKYb4kzrXLW6N9wi-64">
          <mxGeometry x="160" y="45" width="40" height="30" as="geometry" />
        </mxCell>
        <mxCell id="2pi5OKYb4kzrXLW6N9wi-65" style="swimlane;swimlaneHead=0;swimlaneBody=0;fontStyle=0;connectable=0;strokeColor=inherit;fillColor=none;startSize=0;collapsible=0;recursiveResize=0;expand=0;fontSize=16;" vertex="1" parent="2pi5OKYb4kzrXLW6N9wi-57">
          <mxGeometry x="1390" width="160" height="120" as="geometry">
            <mxRectangle width="160" height="120" as="alternateBounds" />
          </mxGeometry>
        </mxCell>
        <mxCell id="2pi5OKYb4kzrXLW6N9wi-92" value="&lt;div&gt;O&lt;/div&gt;" style="text;html=1;align=center;verticalAlign=middle;resizable=0;points=[];autosize=1;strokeColor=none;fillColor=none;" vertex="1" parent="2pi5OKYb4kzrXLW6N9wi-65">
          <mxGeometry x="65" y="45" width="30" height="30" as="geometry" />
        </mxCell>
      </root>
    </mxGraphModel>
  </diagram>
  <diagram name="1 oldal másolata" id="GVFviTWxInOobcLb0n6x">
    <mxGraphModel dx="1252" dy="735" grid="1" gridSize="10" guides="1" tooltips="1" connect="1" arrows="1" fold="1" page="1" pageScale="1" pageWidth="827" pageHeight="1169" math="0" shadow="0">
      <root>
        <mxCell id="rB9GZhO2z_sMPwqikcCB-0" />
        <mxCell id="rB9GZhO2z_sMPwqikcCB-1" parent="rB9GZhO2z_sMPwqikcCB-0" />
        <mxCell id="rB9GZhO2z_sMPwqikcCB-2" value="Egyed-Esemény Mátrix&#xa;(L = létrehozás, O = olvasás, M = módosítás, T = törlés)" style="shape=table;childLayout=tableLayout;startSize=40;collapsible=0;recursiveResize=0;expand=0;fontSize=16;" vertex="1" parent="rB9GZhO2z_sMPwqikcCB-1">
          <mxGeometry x="240" y="70" width="1290" height="1280" as="geometry" />
        </mxCell>
        <mxCell id="rB9GZhO2z_sMPwqikcCB-3" value="Admin" style="shape=tableRow;horizontal=0;swimlaneHead=0;swimlaneBody=0;top=0;left=0;strokeColor=inherit;bottom=0;right=0;dropTarget=0;fontStyle=0;fillColor=none;points=[[0,0.5],[1,0.5]];portConstraint=eastwest;startSize=40;collapsible=0;recursiveResize=0;expand=0;fontSize=16;" vertex="1" parent="rB9GZhO2z_sMPwqikcCB-2">
          <mxGeometry y="40" width="1290" height="120" as="geometry" />
        </mxCell>
        <mxCell id="rB9GZhO2z_sMPwqikcCB-4" value="Menetrend megtekintése" style="swimlane;swimlaneHead=0;swimlaneBody=0;fontStyle=0;strokeColor=inherit;connectable=0;fillColor=none;startSize=40;collapsible=0;recursiveResize=0;expand=0;fontSize=16;flipH=1;flipV=0;" vertex="1" parent="rB9GZhO2z_sMPwqikcCB-3">
          <mxGeometry x="40" width="196" height="120" as="geometry">
            <mxRectangle width="196" height="120" as="alternateBounds" />
          </mxGeometry>
        </mxCell>
        <mxCell id="rB9GZhO2z_sMPwqikcCB-6" value="Állomás megtekintése" style="swimlane;swimlaneHead=0;swimlaneBody=0;fontStyle=0;strokeColor=inherit;connectable=0;fillColor=none;startSize=40;collapsible=0;recursiveResize=0;expand=0;fontSize=16;" vertex="1" parent="rB9GZhO2z_sMPwqikcCB-3">
          <mxGeometry x="236" width="164" height="120" as="geometry">
            <mxRectangle width="164" height="120" as="alternateBounds" />
          </mxGeometry>
        </mxCell>
        <mxCell id="rB9GZhO2z_sMPwqikcCB-8" value="Jegy váltása" style="swimlane;swimlaneHead=0;swimlaneBody=0;fontStyle=0;strokeColor=inherit;connectable=0;fillColor=none;startSize=40;collapsible=0;recursiveResize=0;expand=0;fontSize=16;" vertex="1" parent="rB9GZhO2z_sMPwqikcCB-3">
          <mxGeometry x="400" width="130" height="120" as="geometry">
            <mxRectangle width="130" height="120" as="alternateBounds" />
          </mxGeometry>
        </mxCell>
        <mxCell id="rB9GZhO2z_sMPwqikcCB-9" value="Vonatok kezelése" style="swimlane;swimlaneHead=0;swimlaneBody=0;fontStyle=0;strokeColor=inherit;connectable=0;fillColor=none;startSize=40;collapsible=0;recursiveResize=0;expand=0;fontSize=16;" vertex="1" parent="rB9GZhO2z_sMPwqikcCB-3">
          <mxGeometry x="530" width="160" height="120" as="geometry">
            <mxRectangle width="160" height="120" as="alternateBounds" />
          </mxGeometry>
        </mxCell>
        <mxCell id="rB9GZhO2z_sMPwqikcCB-10" value="Állomások kezelése" style="swimlane;swimlaneHead=0;swimlaneBody=0;fontStyle=0;strokeColor=inherit;connectable=0;fillColor=none;startSize=40;collapsible=0;recursiveResize=0;expand=0;fontSize=16;" vertex="1" parent="rB9GZhO2z_sMPwqikcCB-3">
          <mxGeometry x="690" width="170" height="120" as="geometry">
            <mxRectangle width="170" height="120" as="alternateBounds" />
          </mxGeometry>
        </mxCell>
        <mxCell id="rB9GZhO2z_sMPwqikcCB-11" value="Statisztika készítése" style="swimlane;swimlaneHead=0;swimlaneBody=0;fontStyle=0;strokeColor=inherit;connectable=0;fillColor=none;startSize=40;collapsible=0;recursiveResize=0;expand=0;fontSize=16;" vertex="1" parent="rB9GZhO2z_sMPwqikcCB-3">
          <mxGeometry x="860" width="170" height="120" as="geometry">
            <mxRectangle width="170" height="120" as="alternateBounds" />
          </mxGeometry>
        </mxCell>
        <mxCell id="rB9GZhO2z_sMPwqikcCB-12" value="Saját korábbi jegyek megtekintése" style="swimlane;swimlaneHead=0;swimlaneBody=0;fontStyle=0;strokeColor=inherit;connectable=0;fillColor=none;startSize=40;collapsible=0;recursiveResize=0;expand=0;fontSize=16;" vertex="1" parent="rB9GZhO2z_sMPwqikcCB-3">
          <mxGeometry x="1030" width="260" height="120" as="geometry">
            <mxRectangle width="260" height="120" as="alternateBounds" />
          </mxGeometry>
        </mxCell>
        <mxCell id="rB9GZhO2z_sMPwqikcCB-13" value="Admin-Tag" style="shape=tableRow;horizontal=0;swimlaneHead=0;swimlaneBody=0;top=0;left=0;strokeColor=inherit;bottom=0;right=0;dropTarget=0;fontStyle=0;fillColor=none;points=[[0,0.5],[1,0.5]];portConstraint=eastwest;startSize=40;collapsible=0;recursiveResize=0;expand=0;fontSize=16;" vertex="1" parent="rB9GZhO2z_sMPwqikcCB-2">
          <mxGeometry y="160" width="1290" height="120" as="geometry" />
        </mxCell>
        <mxCell id="rB9GZhO2z_sMPwqikcCB-14" value="" style="swimlane;swimlaneHead=0;swimlaneBody=0;fontStyle=0;connectable=0;strokeColor=inherit;fillColor=none;startSize=0;collapsible=0;recursiveResize=0;expand=0;fontSize=16;" vertex="1" parent="rB9GZhO2z_sMPwqikcCB-13">
          <mxGeometry x="40" width="196" height="120" as="geometry">
            <mxRectangle width="196" height="120" as="alternateBounds" />
          </mxGeometry>
        </mxCell>
        <mxCell id="rB9GZhO2z_sMPwqikcCB-16" value="" style="swimlane;swimlaneHead=0;swimlaneBody=0;fontStyle=0;connectable=0;strokeColor=inherit;fillColor=none;startSize=0;collapsible=0;recursiveResize=0;expand=0;fontSize=16;" vertex="1" parent="rB9GZhO2z_sMPwqikcCB-13">
          <mxGeometry x="236" width="164" height="120" as="geometry">
            <mxRectangle width="164" height="120" as="alternateBounds" />
          </mxGeometry>
        </mxCell>
        <mxCell id="rB9GZhO2z_sMPwqikcCB-18" value="" style="swimlane;swimlaneHead=0;swimlaneBody=0;fontStyle=0;connectable=0;strokeColor=inherit;fillColor=none;startSize=0;collapsible=0;recursiveResize=0;expand=0;fontSize=16;" vertex="1" parent="rB9GZhO2z_sMPwqikcCB-13">
          <mxGeometry x="400" width="130" height="120" as="geometry">
            <mxRectangle width="130" height="120" as="alternateBounds" />
          </mxGeometry>
        </mxCell>
        <mxCell id="rB9GZhO2z_sMPwqikcCB-20" style="swimlane;swimlaneHead=0;swimlaneBody=0;fontStyle=0;connectable=0;strokeColor=inherit;fillColor=none;startSize=0;collapsible=0;recursiveResize=0;expand=0;fontSize=16;" vertex="1" parent="rB9GZhO2z_sMPwqikcCB-13">
          <mxGeometry x="530" width="160" height="120" as="geometry">
            <mxRectangle width="160" height="120" as="alternateBounds" />
          </mxGeometry>
        </mxCell>
        <mxCell id="rB9GZhO2z_sMPwqikcCB-21" style="swimlane;swimlaneHead=0;swimlaneBody=0;fontStyle=0;connectable=0;strokeColor=inherit;fillColor=none;startSize=0;collapsible=0;recursiveResize=0;expand=0;fontSize=16;" vertex="1" parent="rB9GZhO2z_sMPwqikcCB-13">
          <mxGeometry x="690" width="170" height="120" as="geometry">
            <mxRectangle width="170" height="120" as="alternateBounds" />
          </mxGeometry>
        </mxCell>
        <mxCell id="rB9GZhO2z_sMPwqikcCB-22" style="swimlane;swimlaneHead=0;swimlaneBody=0;fontStyle=0;connectable=0;strokeColor=inherit;fillColor=none;startSize=0;collapsible=0;recursiveResize=0;expand=0;fontSize=16;" vertex="1" parent="rB9GZhO2z_sMPwqikcCB-13">
          <mxGeometry x="860" width="170" height="120" as="geometry">
            <mxRectangle width="170" height="120" as="alternateBounds" />
          </mxGeometry>
        </mxCell>
        <mxCell id="rB9GZhO2z_sMPwqikcCB-23" style="swimlane;swimlaneHead=0;swimlaneBody=0;fontStyle=0;connectable=0;strokeColor=inherit;fillColor=none;startSize=0;collapsible=0;recursiveResize=0;expand=0;fontSize=16;" vertex="1" parent="rB9GZhO2z_sMPwqikcCB-13">
          <mxGeometry x="1030" width="260" height="120" as="geometry">
            <mxRectangle width="260" height="120" as="alternateBounds" />
          </mxGeometry>
        </mxCell>
        <mxCell id="rB9GZhO2z_sMPwqikcCB-25" value="Tag" style="shape=tableRow;horizontal=0;swimlaneHead=0;swimlaneBody=0;top=0;left=0;strokeColor=inherit;bottom=0;right=0;dropTarget=0;fontStyle=0;fillColor=none;points=[[0,0.5],[1,0.5]];portConstraint=eastwest;startSize=40;collapsible=0;recursiveResize=0;expand=0;fontSize=16;" vertex="1" parent="rB9GZhO2z_sMPwqikcCB-2">
          <mxGeometry y="280" width="1290" height="120" as="geometry" />
        </mxCell>
        <mxCell id="rB9GZhO2z_sMPwqikcCB-26" value="" style="swimlane;swimlaneHead=0;swimlaneBody=0;fontStyle=0;connectable=0;strokeColor=inherit;fillColor=none;startSize=0;collapsible=0;recursiveResize=0;expand=0;fontSize=16;" vertex="1" parent="rB9GZhO2z_sMPwqikcCB-25">
          <mxGeometry x="40" width="196" height="120" as="geometry">
            <mxRectangle width="196" height="120" as="alternateBounds" />
          </mxGeometry>
        </mxCell>
        <mxCell id="rB9GZhO2z_sMPwqikcCB-28" value="" style="swimlane;swimlaneHead=0;swimlaneBody=0;fontStyle=0;connectable=0;strokeColor=inherit;fillColor=none;startSize=0;collapsible=0;recursiveResize=0;expand=0;fontSize=16;" vertex="1" parent="rB9GZhO2z_sMPwqikcCB-25">
          <mxGeometry x="236" width="164" height="120" as="geometry">
            <mxRectangle width="164" height="120" as="alternateBounds" />
          </mxGeometry>
        </mxCell>
        <mxCell id="rB9GZhO2z_sMPwqikcCB-30" value="" style="swimlane;swimlaneHead=0;swimlaneBody=0;fontStyle=0;connectable=0;strokeColor=inherit;fillColor=none;startSize=0;collapsible=0;recursiveResize=0;expand=0;fontSize=16;" vertex="1" parent="rB9GZhO2z_sMPwqikcCB-25">
          <mxGeometry x="400" width="130" height="120" as="geometry">
            <mxRectangle width="130" height="120" as="alternateBounds" />
          </mxGeometry>
        </mxCell>
        <mxCell id="rB9GZhO2z_sMPwqikcCB-32" style="swimlane;swimlaneHead=0;swimlaneBody=0;fontStyle=0;connectable=0;strokeColor=inherit;fillColor=none;startSize=0;collapsible=0;recursiveResize=0;expand=0;fontSize=16;" vertex="1" parent="rB9GZhO2z_sMPwqikcCB-25">
          <mxGeometry x="530" width="160" height="120" as="geometry">
            <mxRectangle width="160" height="120" as="alternateBounds" />
          </mxGeometry>
        </mxCell>
        <mxCell id="rB9GZhO2z_sMPwqikcCB-34" style="swimlane;swimlaneHead=0;swimlaneBody=0;fontStyle=0;connectable=0;strokeColor=inherit;fillColor=none;startSize=0;collapsible=0;recursiveResize=0;expand=0;fontSize=16;" vertex="1" parent="rB9GZhO2z_sMPwqikcCB-25">
          <mxGeometry x="690" width="170" height="120" as="geometry">
            <mxRectangle width="170" height="120" as="alternateBounds" />
          </mxGeometry>
        </mxCell>
        <mxCell id="rB9GZhO2z_sMPwqikcCB-36" style="swimlane;swimlaneHead=0;swimlaneBody=0;fontStyle=0;connectable=0;strokeColor=inherit;fillColor=none;startSize=0;collapsible=0;recursiveResize=0;expand=0;fontSize=16;" vertex="1" parent="rB9GZhO2z_sMPwqikcCB-25">
          <mxGeometry x="860" width="170" height="120" as="geometry">
            <mxRectangle width="170" height="120" as="alternateBounds" />
          </mxGeometry>
        </mxCell>
        <mxCell id="bmrprhmBqS_iFtBaMLF2-82" value="O" style="text;html=1;align=center;verticalAlign=middle;whiteSpace=wrap;rounded=0;" vertex="1" parent="rB9GZhO2z_sMPwqikcCB-36">
          <mxGeometry x="55" y="45" width="60" height="30" as="geometry" />
        </mxCell>
        <mxCell id="rB9GZhO2z_sMPwqikcCB-38" style="swimlane;swimlaneHead=0;swimlaneBody=0;fontStyle=0;connectable=0;strokeColor=inherit;fillColor=none;startSize=0;collapsible=0;recursiveResize=0;expand=0;fontSize=16;" vertex="1" parent="rB9GZhO2z_sMPwqikcCB-25">
          <mxGeometry x="1030" width="260" height="120" as="geometry">
            <mxRectangle width="260" height="120" as="alternateBounds" />
          </mxGeometry>
        </mxCell>
        <mxCell id="bmrprhmBqS_iFtBaMLF2-0" value="Jegy-Tag" style="shape=tableRow;horizontal=0;swimlaneHead=0;swimlaneBody=0;top=0;left=0;strokeColor=inherit;bottom=0;right=0;dropTarget=0;fontStyle=0;fillColor=none;points=[[0,0.5],[1,0.5]];portConstraint=eastwest;startSize=40;collapsible=0;recursiveResize=0;expand=0;fontSize=16;" vertex="1" parent="rB9GZhO2z_sMPwqikcCB-2">
          <mxGeometry y="400" width="1290" height="120" as="geometry" />
        </mxCell>
        <mxCell id="bmrprhmBqS_iFtBaMLF2-1" style="swimlane;swimlaneHead=0;swimlaneBody=0;fontStyle=0;connectable=0;strokeColor=inherit;fillColor=none;startSize=0;collapsible=0;recursiveResize=0;expand=0;fontSize=16;" vertex="1" parent="bmrprhmBqS_iFtBaMLF2-0">
          <mxGeometry x="40" width="196" height="120" as="geometry">
            <mxRectangle width="196" height="120" as="alternateBounds" />
          </mxGeometry>
        </mxCell>
        <mxCell id="bmrprhmBqS_iFtBaMLF2-2" style="swimlane;swimlaneHead=0;swimlaneBody=0;fontStyle=0;connectable=0;strokeColor=inherit;fillColor=none;startSize=0;collapsible=0;recursiveResize=0;expand=0;fontSize=16;" vertex="1" parent="bmrprhmBqS_iFtBaMLF2-0">
          <mxGeometry x="236" width="164" height="120" as="geometry">
            <mxRectangle width="164" height="120" as="alternateBounds" />
          </mxGeometry>
        </mxCell>
        <mxCell id="bmrprhmBqS_iFtBaMLF2-3" style="swimlane;swimlaneHead=0;swimlaneBody=0;fontStyle=0;connectable=0;strokeColor=inherit;fillColor=none;startSize=0;collapsible=0;recursiveResize=0;expand=0;fontSize=16;" vertex="1" parent="bmrprhmBqS_iFtBaMLF2-0">
          <mxGeometry x="400" width="130" height="120" as="geometry">
            <mxRectangle width="130" height="120" as="alternateBounds" />
          </mxGeometry>
        </mxCell>
        <mxCell id="bmrprhmBqS_iFtBaMLF2-4" style="swimlane;swimlaneHead=0;swimlaneBody=0;fontStyle=0;connectable=0;strokeColor=inherit;fillColor=none;startSize=0;collapsible=0;recursiveResize=0;expand=0;fontSize=16;" vertex="1" parent="bmrprhmBqS_iFtBaMLF2-0">
          <mxGeometry x="530" width="160" height="120" as="geometry">
            <mxRectangle width="160" height="120" as="alternateBounds" />
          </mxGeometry>
        </mxCell>
        <mxCell id="bmrprhmBqS_iFtBaMLF2-5" style="swimlane;swimlaneHead=0;swimlaneBody=0;fontStyle=0;connectable=0;strokeColor=inherit;fillColor=none;startSize=0;collapsible=0;recursiveResize=0;expand=0;fontSize=16;" vertex="1" parent="bmrprhmBqS_iFtBaMLF2-0">
          <mxGeometry x="690" width="170" height="120" as="geometry">
            <mxRectangle width="170" height="120" as="alternateBounds" />
          </mxGeometry>
        </mxCell>
        <mxCell id="bmrprhmBqS_iFtBaMLF2-6" style="swimlane;swimlaneHead=0;swimlaneBody=0;fontStyle=0;connectable=0;strokeColor=inherit;fillColor=none;startSize=0;collapsible=0;recursiveResize=0;expand=0;fontSize=16;" vertex="1" parent="bmrprhmBqS_iFtBaMLF2-0">
          <mxGeometry x="860" width="170" height="120" as="geometry">
            <mxRectangle width="170" height="120" as="alternateBounds" />
          </mxGeometry>
        </mxCell>
        <mxCell id="bmrprhmBqS_iFtBaMLF2-80" value="O" style="text;html=1;align=center;verticalAlign=middle;whiteSpace=wrap;rounded=0;" vertex="1" parent="bmrprhmBqS_iFtBaMLF2-6">
          <mxGeometry x="55" y="45" width="60" height="30" as="geometry" />
        </mxCell>
        <mxCell id="bmrprhmBqS_iFtBaMLF2-7" style="swimlane;swimlaneHead=0;swimlaneBody=0;fontStyle=0;connectable=0;strokeColor=inherit;fillColor=none;startSize=0;collapsible=0;recursiveResize=0;expand=0;fontSize=16;" vertex="1" parent="bmrprhmBqS_iFtBaMLF2-0">
          <mxGeometry x="1030" width="260" height="120" as="geometry">
            <mxRectangle width="260" height="120" as="alternateBounds" />
          </mxGeometry>
        </mxCell>
        <mxCell id="bmrprhmBqS_iFtBaMLF2-16" value="Jegy" style="shape=tableRow;horizontal=0;swimlaneHead=0;swimlaneBody=0;top=0;left=0;strokeColor=inherit;bottom=0;right=0;dropTarget=0;fontStyle=0;fillColor=none;points=[[0,0.5],[1,0.5]];portConstraint=eastwest;startSize=40;collapsible=0;recursiveResize=0;expand=0;fontSize=16;" vertex="1" parent="rB9GZhO2z_sMPwqikcCB-2">
          <mxGeometry y="520" width="1290" height="120" as="geometry" />
        </mxCell>
        <mxCell id="bmrprhmBqS_iFtBaMLF2-17" style="swimlane;swimlaneHead=0;swimlaneBody=0;fontStyle=0;connectable=0;strokeColor=inherit;fillColor=none;startSize=0;collapsible=0;recursiveResize=0;expand=0;fontSize=16;" vertex="1" parent="bmrprhmBqS_iFtBaMLF2-16">
          <mxGeometry x="40" width="196" height="120" as="geometry">
            <mxRectangle width="196" height="120" as="alternateBounds" />
          </mxGeometry>
        </mxCell>
        <mxCell id="bmrprhmBqS_iFtBaMLF2-18" style="swimlane;swimlaneHead=0;swimlaneBody=0;fontStyle=0;connectable=0;strokeColor=inherit;fillColor=none;startSize=0;collapsible=0;recursiveResize=0;expand=0;fontSize=16;" vertex="1" parent="bmrprhmBqS_iFtBaMLF2-16">
          <mxGeometry x="236" width="164" height="120" as="geometry">
            <mxRectangle width="164" height="120" as="alternateBounds" />
          </mxGeometry>
        </mxCell>
        <mxCell id="bmrprhmBqS_iFtBaMLF2-19" style="swimlane;swimlaneHead=0;swimlaneBody=0;fontStyle=0;connectable=0;strokeColor=inherit;fillColor=none;startSize=0;collapsible=0;recursiveResize=0;expand=0;fontSize=16;" vertex="1" parent="bmrprhmBqS_iFtBaMLF2-16">
          <mxGeometry x="400" width="130" height="120" as="geometry">
            <mxRectangle width="130" height="120" as="alternateBounds" />
          </mxGeometry>
        </mxCell>
        <mxCell id="bmrprhmBqS_iFtBaMLF2-63" value="L" style="text;html=1;align=center;verticalAlign=middle;whiteSpace=wrap;rounded=0;" vertex="1" parent="bmrprhmBqS_iFtBaMLF2-19">
          <mxGeometry x="35" y="45" width="60" height="30" as="geometry" />
        </mxCell>
        <mxCell id="bmrprhmBqS_iFtBaMLF2-20" style="swimlane;swimlaneHead=0;swimlaneBody=0;fontStyle=0;connectable=0;strokeColor=inherit;fillColor=none;startSize=0;collapsible=0;recursiveResize=0;expand=0;fontSize=16;" vertex="1" parent="bmrprhmBqS_iFtBaMLF2-16">
          <mxGeometry x="530" width="160" height="120" as="geometry">
            <mxRectangle width="160" height="120" as="alternateBounds" />
          </mxGeometry>
        </mxCell>
        <mxCell id="bmrprhmBqS_iFtBaMLF2-21" style="swimlane;swimlaneHead=0;swimlaneBody=0;fontStyle=0;connectable=0;strokeColor=inherit;fillColor=none;startSize=0;collapsible=0;recursiveResize=0;expand=0;fontSize=16;" vertex="1" parent="bmrprhmBqS_iFtBaMLF2-16">
          <mxGeometry x="690" width="170" height="120" as="geometry">
            <mxRectangle width="170" height="120" as="alternateBounds" />
          </mxGeometry>
        </mxCell>
        <mxCell id="bmrprhmBqS_iFtBaMLF2-22" style="swimlane;swimlaneHead=0;swimlaneBody=0;fontStyle=0;connectable=0;strokeColor=inherit;fillColor=none;startSize=0;collapsible=0;recursiveResize=0;expand=0;fontSize=16;" vertex="1" parent="bmrprhmBqS_iFtBaMLF2-16">
          <mxGeometry x="860" width="170" height="120" as="geometry">
            <mxRectangle width="170" height="120" as="alternateBounds" />
          </mxGeometry>
        </mxCell>
        <mxCell id="bmrprhmBqS_iFtBaMLF2-79" value="O" style="text;html=1;align=center;verticalAlign=middle;whiteSpace=wrap;rounded=0;" vertex="1" parent="bmrprhmBqS_iFtBaMLF2-22">
          <mxGeometry x="55" y="45" width="60" height="30" as="geometry" />
        </mxCell>
        <mxCell id="bmrprhmBqS_iFtBaMLF2-23" style="swimlane;swimlaneHead=0;swimlaneBody=0;fontStyle=0;connectable=0;strokeColor=inherit;fillColor=none;startSize=0;collapsible=0;recursiveResize=0;expand=0;fontSize=16;" vertex="1" parent="bmrprhmBqS_iFtBaMLF2-16">
          <mxGeometry x="1030" width="260" height="120" as="geometry">
            <mxRectangle width="260" height="120" as="alternateBounds" />
          </mxGeometry>
        </mxCell>
        <mxCell id="bmrprhmBqS_iFtBaMLF2-62" value="O" style="text;html=1;align=center;verticalAlign=middle;whiteSpace=wrap;rounded=0;" vertex="1" parent="bmrprhmBqS_iFtBaMLF2-23">
          <mxGeometry x="100" y="45" width="60" height="30" as="geometry" />
        </mxCell>
        <mxCell id="bmrprhmBqS_iFtBaMLF2-8" value="Vonat" style="shape=tableRow;horizontal=0;swimlaneHead=0;swimlaneBody=0;top=0;left=0;strokeColor=inherit;bottom=0;right=0;dropTarget=0;fontStyle=0;fillColor=none;points=[[0,0.5],[1,0.5]];portConstraint=eastwest;startSize=40;collapsible=0;recursiveResize=0;expand=0;fontSize=16;" vertex="1" parent="rB9GZhO2z_sMPwqikcCB-2">
          <mxGeometry y="640" width="1290" height="120" as="geometry" />
        </mxCell>
        <mxCell id="bmrprhmBqS_iFtBaMLF2-9" style="swimlane;swimlaneHead=0;swimlaneBody=0;fontStyle=0;connectable=0;strokeColor=inherit;fillColor=none;startSize=0;collapsible=0;recursiveResize=0;expand=0;fontSize=16;" vertex="1" parent="bmrprhmBqS_iFtBaMLF2-8">
          <mxGeometry x="40" width="196" height="120" as="geometry">
            <mxRectangle width="196" height="120" as="alternateBounds" />
          </mxGeometry>
        </mxCell>
        <mxCell id="bmrprhmBqS_iFtBaMLF2-66" value="O" style="text;html=1;align=center;verticalAlign=middle;whiteSpace=wrap;rounded=0;" vertex="1" parent="bmrprhmBqS_iFtBaMLF2-9">
          <mxGeometry x="68" y="45" width="60" height="30" as="geometry" />
        </mxCell>
        <mxCell id="bmrprhmBqS_iFtBaMLF2-10" style="swimlane;swimlaneHead=0;swimlaneBody=0;fontStyle=0;connectable=0;strokeColor=inherit;fillColor=none;startSize=0;collapsible=0;recursiveResize=0;expand=0;fontSize=16;" vertex="1" parent="bmrprhmBqS_iFtBaMLF2-8">
          <mxGeometry x="236" width="164" height="120" as="geometry">
            <mxRectangle width="164" height="120" as="alternateBounds" />
          </mxGeometry>
        </mxCell>
        <mxCell id="bmrprhmBqS_iFtBaMLF2-11" style="swimlane;swimlaneHead=0;swimlaneBody=0;fontStyle=0;connectable=0;strokeColor=inherit;fillColor=none;startSize=0;collapsible=0;recursiveResize=0;expand=0;fontSize=16;" vertex="1" parent="bmrprhmBqS_iFtBaMLF2-8">
          <mxGeometry x="400" width="130" height="120" as="geometry">
            <mxRectangle width="130" height="120" as="alternateBounds" />
          </mxGeometry>
        </mxCell>
        <mxCell id="bmrprhmBqS_iFtBaMLF2-12" style="swimlane;swimlaneHead=0;swimlaneBody=0;fontStyle=0;connectable=0;strokeColor=inherit;fillColor=none;startSize=0;collapsible=0;recursiveResize=0;expand=0;fontSize=16;" vertex="1" parent="bmrprhmBqS_iFtBaMLF2-8">
          <mxGeometry x="530" width="160" height="120" as="geometry">
            <mxRectangle width="160" height="120" as="alternateBounds" />
          </mxGeometry>
        </mxCell>
        <mxCell id="bmrprhmBqS_iFtBaMLF2-58" value="LMT" style="text;html=1;align=center;verticalAlign=middle;whiteSpace=wrap;rounded=0;" vertex="1" parent="bmrprhmBqS_iFtBaMLF2-12">
          <mxGeometry x="50" y="45" width="60" height="30" as="geometry" />
        </mxCell>
        <mxCell id="bmrprhmBqS_iFtBaMLF2-13" style="swimlane;swimlaneHead=0;swimlaneBody=0;fontStyle=0;connectable=0;strokeColor=inherit;fillColor=none;startSize=0;collapsible=0;recursiveResize=0;expand=0;fontSize=16;" vertex="1" parent="bmrprhmBqS_iFtBaMLF2-8">
          <mxGeometry x="690" width="170" height="120" as="geometry">
            <mxRectangle width="170" height="120" as="alternateBounds" />
          </mxGeometry>
        </mxCell>
        <mxCell id="bmrprhmBqS_iFtBaMLF2-14" style="swimlane;swimlaneHead=0;swimlaneBody=0;fontStyle=0;connectable=0;strokeColor=inherit;fillColor=none;startSize=0;collapsible=0;recursiveResize=0;expand=0;fontSize=16;" vertex="1" parent="bmrprhmBqS_iFtBaMLF2-8">
          <mxGeometry x="860" width="170" height="120" as="geometry">
            <mxRectangle width="170" height="120" as="alternateBounds" />
          </mxGeometry>
        </mxCell>
        <mxCell id="bmrprhmBqS_iFtBaMLF2-78" value="O" style="text;html=1;align=center;verticalAlign=middle;whiteSpace=wrap;rounded=0;" vertex="1" parent="bmrprhmBqS_iFtBaMLF2-14">
          <mxGeometry x="55" y="45" width="60" height="30" as="geometry" />
        </mxCell>
        <mxCell id="bmrprhmBqS_iFtBaMLF2-15" style="swimlane;swimlaneHead=0;swimlaneBody=0;fontStyle=0;connectable=0;strokeColor=inherit;fillColor=none;startSize=0;collapsible=0;recursiveResize=0;expand=0;fontSize=16;" vertex="1" parent="bmrprhmBqS_iFtBaMLF2-8">
          <mxGeometry x="1030" width="260" height="120" as="geometry">
            <mxRectangle width="260" height="120" as="alternateBounds" />
          </mxGeometry>
        </mxCell>
        <mxCell id="bmrprhmBqS_iFtBaMLF2-48" value="Menetrend-Vonat" style="shape=tableRow;horizontal=0;swimlaneHead=0;swimlaneBody=0;top=0;left=0;strokeColor=inherit;bottom=0;right=0;dropTarget=0;fontStyle=0;fillColor=none;points=[[0,0.5],[1,0.5]];portConstraint=eastwest;startSize=40;collapsible=0;recursiveResize=0;expand=0;fontSize=16;" vertex="1" parent="rB9GZhO2z_sMPwqikcCB-2">
          <mxGeometry y="760" width="1290" height="130" as="geometry" />
        </mxCell>
        <mxCell id="bmrprhmBqS_iFtBaMLF2-49" style="swimlane;swimlaneHead=0;swimlaneBody=0;fontStyle=0;connectable=0;strokeColor=inherit;fillColor=none;startSize=0;collapsible=0;recursiveResize=0;expand=0;fontSize=16;" vertex="1" parent="bmrprhmBqS_iFtBaMLF2-48">
          <mxGeometry x="40" width="196" height="130" as="geometry">
            <mxRectangle width="196" height="130" as="alternateBounds" />
          </mxGeometry>
        </mxCell>
        <mxCell id="bmrprhmBqS_iFtBaMLF2-68" value="O" style="text;html=1;align=center;verticalAlign=middle;whiteSpace=wrap;rounded=0;" vertex="1" parent="bmrprhmBqS_iFtBaMLF2-49">
          <mxGeometry x="68" y="50" width="60" height="30" as="geometry" />
        </mxCell>
        <mxCell id="bmrprhmBqS_iFtBaMLF2-50" style="swimlane;swimlaneHead=0;swimlaneBody=0;fontStyle=0;connectable=0;strokeColor=inherit;fillColor=none;startSize=0;collapsible=0;recursiveResize=0;expand=0;fontSize=16;" vertex="1" parent="bmrprhmBqS_iFtBaMLF2-48">
          <mxGeometry x="236" width="164" height="130" as="geometry">
            <mxRectangle width="164" height="130" as="alternateBounds" />
          </mxGeometry>
        </mxCell>
        <mxCell id="bmrprhmBqS_iFtBaMLF2-51" style="swimlane;swimlaneHead=0;swimlaneBody=0;fontStyle=0;connectable=0;strokeColor=inherit;fillColor=none;startSize=0;collapsible=0;recursiveResize=0;expand=0;fontSize=16;" vertex="1" parent="bmrprhmBqS_iFtBaMLF2-48">
          <mxGeometry x="400" width="130" height="130" as="geometry">
            <mxRectangle width="130" height="130" as="alternateBounds" />
          </mxGeometry>
        </mxCell>
        <mxCell id="bmrprhmBqS_iFtBaMLF2-52" style="swimlane;swimlaneHead=0;swimlaneBody=0;fontStyle=0;connectable=0;strokeColor=inherit;fillColor=none;startSize=0;collapsible=0;recursiveResize=0;expand=0;fontSize=16;" vertex="1" parent="bmrprhmBqS_iFtBaMLF2-48">
          <mxGeometry x="530" width="160" height="130" as="geometry">
            <mxRectangle width="160" height="130" as="alternateBounds" />
          </mxGeometry>
        </mxCell>
        <mxCell id="bmrprhmBqS_iFtBaMLF2-59" value="LMT" style="text;html=1;align=center;verticalAlign=middle;whiteSpace=wrap;rounded=0;" vertex="1" parent="bmrprhmBqS_iFtBaMLF2-52">
          <mxGeometry x="50" y="50" width="60" height="30" as="geometry" />
        </mxCell>
        <mxCell id="bmrprhmBqS_iFtBaMLF2-53" style="swimlane;swimlaneHead=0;swimlaneBody=0;fontStyle=0;connectable=0;strokeColor=inherit;fillColor=none;startSize=0;collapsible=0;recursiveResize=0;expand=0;fontSize=16;" vertex="1" parent="bmrprhmBqS_iFtBaMLF2-48">
          <mxGeometry x="690" width="170" height="130" as="geometry">
            <mxRectangle width="170" height="130" as="alternateBounds" />
          </mxGeometry>
        </mxCell>
        <mxCell id="bmrprhmBqS_iFtBaMLF2-54" style="swimlane;swimlaneHead=0;swimlaneBody=0;fontStyle=0;connectable=0;strokeColor=inherit;fillColor=none;startSize=0;collapsible=0;recursiveResize=0;expand=0;fontSize=16;" vertex="1" parent="bmrprhmBqS_iFtBaMLF2-48">
          <mxGeometry x="860" width="170" height="130" as="geometry">
            <mxRectangle width="170" height="130" as="alternateBounds" />
          </mxGeometry>
        </mxCell>
        <mxCell id="bmrprhmBqS_iFtBaMLF2-77" value="O" style="text;html=1;align=center;verticalAlign=middle;whiteSpace=wrap;rounded=0;" vertex="1" parent="bmrprhmBqS_iFtBaMLF2-54">
          <mxGeometry x="55" y="50" width="60" height="30" as="geometry" />
        </mxCell>
        <mxCell id="bmrprhmBqS_iFtBaMLF2-55" style="swimlane;swimlaneHead=0;swimlaneBody=0;fontStyle=0;connectable=0;strokeColor=inherit;fillColor=none;startSize=0;collapsible=0;recursiveResize=0;expand=0;fontSize=16;" vertex="1" parent="bmrprhmBqS_iFtBaMLF2-48">
          <mxGeometry x="1030" width="260" height="130" as="geometry">
            <mxRectangle width="260" height="130" as="alternateBounds" />
          </mxGeometry>
        </mxCell>
        <mxCell id="bmrprhmBqS_iFtBaMLF2-40" value="Menetrend" style="shape=tableRow;horizontal=0;swimlaneHead=0;swimlaneBody=0;top=0;left=0;strokeColor=inherit;bottom=0;right=0;dropTarget=0;fontStyle=0;fillColor=none;points=[[0,0.5],[1,0.5]];portConstraint=eastwest;startSize=40;collapsible=0;recursiveResize=0;expand=0;fontSize=16;" vertex="1" parent="rB9GZhO2z_sMPwqikcCB-2">
          <mxGeometry y="890" width="1290" height="120" as="geometry" />
        </mxCell>
        <mxCell id="bmrprhmBqS_iFtBaMLF2-41" style="swimlane;swimlaneHead=0;swimlaneBody=0;fontStyle=0;connectable=0;strokeColor=inherit;fillColor=none;startSize=0;collapsible=0;recursiveResize=0;expand=0;fontSize=16;" vertex="1" parent="bmrprhmBqS_iFtBaMLF2-40">
          <mxGeometry x="40" width="196" height="120" as="geometry">
            <mxRectangle width="196" height="120" as="alternateBounds" />
          </mxGeometry>
        </mxCell>
        <mxCell id="bmrprhmBqS_iFtBaMLF2-67" value="O" style="text;html=1;align=center;verticalAlign=middle;whiteSpace=wrap;rounded=0;" vertex="1" parent="bmrprhmBqS_iFtBaMLF2-41">
          <mxGeometry x="68" y="45" width="60" height="30" as="geometry" />
        </mxCell>
        <mxCell id="bmrprhmBqS_iFtBaMLF2-42" style="swimlane;swimlaneHead=0;swimlaneBody=0;fontStyle=0;connectable=0;strokeColor=inherit;fillColor=none;startSize=0;collapsible=0;recursiveResize=0;expand=0;fontSize=16;" vertex="1" parent="bmrprhmBqS_iFtBaMLF2-40">
          <mxGeometry x="236" width="164" height="120" as="geometry">
            <mxRectangle width="164" height="120" as="alternateBounds" />
          </mxGeometry>
        </mxCell>
        <mxCell id="bmrprhmBqS_iFtBaMLF2-43" style="swimlane;swimlaneHead=0;swimlaneBody=0;fontStyle=0;connectable=0;strokeColor=inherit;fillColor=none;startSize=0;collapsible=0;recursiveResize=0;expand=0;fontSize=16;" vertex="1" parent="bmrprhmBqS_iFtBaMLF2-40">
          <mxGeometry x="400" width="130" height="120" as="geometry">
            <mxRectangle width="130" height="120" as="alternateBounds" />
          </mxGeometry>
        </mxCell>
        <mxCell id="bmrprhmBqS_iFtBaMLF2-44" style="swimlane;swimlaneHead=0;swimlaneBody=0;fontStyle=0;connectable=0;strokeColor=inherit;fillColor=none;startSize=0;collapsible=0;recursiveResize=0;expand=0;fontSize=16;" vertex="1" parent="bmrprhmBqS_iFtBaMLF2-40">
          <mxGeometry x="530" width="160" height="120" as="geometry">
            <mxRectangle width="160" height="120" as="alternateBounds" />
          </mxGeometry>
        </mxCell>
        <mxCell id="bmrprhmBqS_iFtBaMLF2-45" style="swimlane;swimlaneHead=0;swimlaneBody=0;fontStyle=0;connectable=0;strokeColor=inherit;fillColor=none;startSize=0;collapsible=0;recursiveResize=0;expand=0;fontSize=16;" vertex="1" parent="bmrprhmBqS_iFtBaMLF2-40">
          <mxGeometry x="690" width="170" height="120" as="geometry">
            <mxRectangle width="170" height="120" as="alternateBounds" />
          </mxGeometry>
        </mxCell>
        <mxCell id="bmrprhmBqS_iFtBaMLF2-46" style="swimlane;swimlaneHead=0;swimlaneBody=0;fontStyle=0;connectable=0;strokeColor=inherit;fillColor=none;startSize=0;collapsible=0;recursiveResize=0;expand=0;fontSize=16;" vertex="1" parent="bmrprhmBqS_iFtBaMLF2-40">
          <mxGeometry x="860" width="170" height="120" as="geometry">
            <mxRectangle width="170" height="120" as="alternateBounds" />
          </mxGeometry>
        </mxCell>
        <mxCell id="bmrprhmBqS_iFtBaMLF2-76" value="O" style="text;html=1;align=center;verticalAlign=middle;whiteSpace=wrap;rounded=0;" vertex="1" parent="bmrprhmBqS_iFtBaMLF2-46">
          <mxGeometry x="55" y="45" width="60" height="30" as="geometry" />
        </mxCell>
        <mxCell id="bmrprhmBqS_iFtBaMLF2-47" style="swimlane;swimlaneHead=0;swimlaneBody=0;fontStyle=0;connectable=0;strokeColor=inherit;fillColor=none;startSize=0;collapsible=0;recursiveResize=0;expand=0;fontSize=16;" vertex="1" parent="bmrprhmBqS_iFtBaMLF2-40">
          <mxGeometry x="1030" width="260" height="120" as="geometry">
            <mxRectangle width="260" height="120" as="alternateBounds" />
          </mxGeometry>
        </mxCell>
        <mxCell id="bmrprhmBqS_iFtBaMLF2-32" value="Állomás-Menetrend" style="shape=tableRow;horizontal=0;swimlaneHead=0;swimlaneBody=0;top=0;left=0;strokeColor=inherit;bottom=0;right=0;dropTarget=0;fontStyle=0;fillColor=none;points=[[0,0.5],[1,0.5]];portConstraint=eastwest;startSize=40;collapsible=0;recursiveResize=0;expand=0;fontSize=16;" vertex="1" parent="rB9GZhO2z_sMPwqikcCB-2">
          <mxGeometry y="1010" width="1290" height="150" as="geometry" />
        </mxCell>
        <mxCell id="bmrprhmBqS_iFtBaMLF2-33" style="swimlane;swimlaneHead=0;swimlaneBody=0;fontStyle=0;connectable=0;strokeColor=inherit;fillColor=none;startSize=0;collapsible=0;recursiveResize=0;expand=0;fontSize=16;" vertex="1" parent="bmrprhmBqS_iFtBaMLF2-32">
          <mxGeometry x="40" width="196" height="150" as="geometry">
            <mxRectangle width="196" height="150" as="alternateBounds" />
          </mxGeometry>
        </mxCell>
        <mxCell id="bmrprhmBqS_iFtBaMLF2-34" style="swimlane;swimlaneHead=0;swimlaneBody=0;fontStyle=0;connectable=0;strokeColor=inherit;fillColor=none;startSize=0;collapsible=0;recursiveResize=0;expand=0;fontSize=16;" vertex="1" parent="bmrprhmBqS_iFtBaMLF2-32">
          <mxGeometry x="236" width="164" height="150" as="geometry">
            <mxRectangle width="164" height="150" as="alternateBounds" />
          </mxGeometry>
        </mxCell>
        <mxCell id="bmrprhmBqS_iFtBaMLF2-69" value="O" style="text;html=1;align=center;verticalAlign=middle;whiteSpace=wrap;rounded=0;" vertex="1" parent="bmrprhmBqS_iFtBaMLF2-34">
          <mxGeometry x="52" y="60" width="60" height="30" as="geometry" />
        </mxCell>
        <mxCell id="bmrprhmBqS_iFtBaMLF2-35" style="swimlane;swimlaneHead=0;swimlaneBody=0;fontStyle=0;connectable=0;strokeColor=inherit;fillColor=none;startSize=0;collapsible=0;recursiveResize=0;expand=0;fontSize=16;" vertex="1" parent="bmrprhmBqS_iFtBaMLF2-32">
          <mxGeometry x="400" width="130" height="150" as="geometry">
            <mxRectangle width="130" height="150" as="alternateBounds" />
          </mxGeometry>
        </mxCell>
        <mxCell id="bmrprhmBqS_iFtBaMLF2-36" style="swimlane;swimlaneHead=0;swimlaneBody=0;fontStyle=0;connectable=0;strokeColor=inherit;fillColor=none;startSize=0;collapsible=0;recursiveResize=0;expand=0;fontSize=16;" vertex="1" parent="bmrprhmBqS_iFtBaMLF2-32">
          <mxGeometry x="530" width="160" height="150" as="geometry">
            <mxRectangle width="160" height="150" as="alternateBounds" />
          </mxGeometry>
        </mxCell>
        <mxCell id="bmrprhmBqS_iFtBaMLF2-37" style="swimlane;swimlaneHead=0;swimlaneBody=0;fontStyle=0;connectable=0;strokeColor=inherit;fillColor=none;startSize=0;collapsible=0;recursiveResize=0;expand=0;fontSize=16;" vertex="1" parent="bmrprhmBqS_iFtBaMLF2-32">
          <mxGeometry x="690" width="170" height="150" as="geometry">
            <mxRectangle width="170" height="150" as="alternateBounds" />
          </mxGeometry>
        </mxCell>
        <mxCell id="bmrprhmBqS_iFtBaMLF2-73" value="LMT" style="text;html=1;align=center;verticalAlign=middle;whiteSpace=wrap;rounded=0;" vertex="1" parent="bmrprhmBqS_iFtBaMLF2-37">
          <mxGeometry x="55" y="60" width="60" height="30" as="geometry" />
        </mxCell>
        <mxCell id="bmrprhmBqS_iFtBaMLF2-38" style="swimlane;swimlaneHead=0;swimlaneBody=0;fontStyle=0;connectable=0;strokeColor=inherit;fillColor=none;startSize=0;collapsible=0;recursiveResize=0;expand=0;fontSize=16;" vertex="1" parent="bmrprhmBqS_iFtBaMLF2-32">
          <mxGeometry x="860" width="170" height="150" as="geometry">
            <mxRectangle width="170" height="150" as="alternateBounds" />
          </mxGeometry>
        </mxCell>
        <mxCell id="bmrprhmBqS_iFtBaMLF2-75" value="O" style="text;html=1;align=center;verticalAlign=middle;whiteSpace=wrap;rounded=0;" vertex="1" parent="bmrprhmBqS_iFtBaMLF2-38">
          <mxGeometry x="55" y="60" width="60" height="30" as="geometry" />
        </mxCell>
        <mxCell id="bmrprhmBqS_iFtBaMLF2-39" style="swimlane;swimlaneHead=0;swimlaneBody=0;fontStyle=0;connectable=0;strokeColor=inherit;fillColor=none;startSize=0;collapsible=0;recursiveResize=0;expand=0;fontSize=16;" vertex="1" parent="bmrprhmBqS_iFtBaMLF2-32">
          <mxGeometry x="1030" width="260" height="150" as="geometry">
            <mxRectangle width="260" height="150" as="alternateBounds" />
          </mxGeometry>
        </mxCell>
        <mxCell id="bmrprhmBqS_iFtBaMLF2-24" value="Állomás" style="shape=tableRow;horizontal=0;swimlaneHead=0;swimlaneBody=0;top=0;left=0;strokeColor=inherit;bottom=0;right=0;dropTarget=0;fontStyle=0;fillColor=none;points=[[0,0.5],[1,0.5]];portConstraint=eastwest;startSize=40;collapsible=0;recursiveResize=0;expand=0;fontSize=16;" vertex="1" parent="rB9GZhO2z_sMPwqikcCB-2">
          <mxGeometry y="1160" width="1290" height="120" as="geometry" />
        </mxCell>
        <mxCell id="bmrprhmBqS_iFtBaMLF2-25" style="swimlane;swimlaneHead=0;swimlaneBody=0;fontStyle=0;connectable=0;strokeColor=inherit;fillColor=none;startSize=0;collapsible=0;recursiveResize=0;expand=0;fontSize=16;" vertex="1" parent="bmrprhmBqS_iFtBaMLF2-24">
          <mxGeometry x="40" width="196" height="120" as="geometry">
            <mxRectangle width="196" height="120" as="alternateBounds" />
          </mxGeometry>
        </mxCell>
        <mxCell id="bmrprhmBqS_iFtBaMLF2-26" style="swimlane;swimlaneHead=0;swimlaneBody=0;fontStyle=0;connectable=0;strokeColor=inherit;fillColor=none;startSize=0;collapsible=0;recursiveResize=0;expand=0;fontSize=16;" vertex="1" parent="bmrprhmBqS_iFtBaMLF2-24">
          <mxGeometry x="236" width="164" height="120" as="geometry">
            <mxRectangle width="164" height="120" as="alternateBounds" />
          </mxGeometry>
        </mxCell>
        <mxCell id="bmrprhmBqS_iFtBaMLF2-70" value="O" style="text;html=1;align=center;verticalAlign=middle;whiteSpace=wrap;rounded=0;" vertex="1" parent="bmrprhmBqS_iFtBaMLF2-26">
          <mxGeometry x="52" y="45" width="60" height="30" as="geometry" />
        </mxCell>
        <mxCell id="bmrprhmBqS_iFtBaMLF2-27" style="swimlane;swimlaneHead=0;swimlaneBody=0;fontStyle=0;connectable=0;strokeColor=inherit;fillColor=none;startSize=0;collapsible=0;recursiveResize=0;expand=0;fontSize=16;" vertex="1" parent="bmrprhmBqS_iFtBaMLF2-24">
          <mxGeometry x="400" width="130" height="120" as="geometry">
            <mxRectangle width="130" height="120" as="alternateBounds" />
          </mxGeometry>
        </mxCell>
        <mxCell id="bmrprhmBqS_iFtBaMLF2-28" style="swimlane;swimlaneHead=0;swimlaneBody=0;fontStyle=0;connectable=0;strokeColor=inherit;fillColor=none;startSize=0;collapsible=0;recursiveResize=0;expand=0;fontSize=16;" vertex="1" parent="bmrprhmBqS_iFtBaMLF2-24">
          <mxGeometry x="530" width="160" height="120" as="geometry">
            <mxRectangle width="160" height="120" as="alternateBounds" />
          </mxGeometry>
        </mxCell>
        <mxCell id="bmrprhmBqS_iFtBaMLF2-29" style="swimlane;swimlaneHead=0;swimlaneBody=0;fontStyle=0;connectable=0;strokeColor=inherit;fillColor=none;startSize=0;collapsible=0;recursiveResize=0;expand=0;fontSize=16;" vertex="1" parent="bmrprhmBqS_iFtBaMLF2-24">
          <mxGeometry x="690" width="170" height="120" as="geometry">
            <mxRectangle width="170" height="120" as="alternateBounds" />
          </mxGeometry>
        </mxCell>
        <mxCell id="bmrprhmBqS_iFtBaMLF2-65" value="LMT" style="text;html=1;align=center;verticalAlign=middle;whiteSpace=wrap;rounded=0;" vertex="1" parent="bmrprhmBqS_iFtBaMLF2-29">
          <mxGeometry x="55" y="45" width="60" height="30" as="geometry" />
        </mxCell>
        <mxCell id="bmrprhmBqS_iFtBaMLF2-30" style="swimlane;swimlaneHead=0;swimlaneBody=0;fontStyle=0;connectable=0;strokeColor=inherit;fillColor=none;startSize=0;collapsible=0;recursiveResize=0;expand=0;fontSize=16;" vertex="1" parent="bmrprhmBqS_iFtBaMLF2-24">
          <mxGeometry x="860" width="170" height="120" as="geometry">
            <mxRectangle width="170" height="120" as="alternateBounds" />
          </mxGeometry>
        </mxCell>
        <mxCell id="bmrprhmBqS_iFtBaMLF2-74" value="O" style="text;html=1;align=center;verticalAlign=middle;whiteSpace=wrap;rounded=0;" vertex="1" parent="bmrprhmBqS_iFtBaMLF2-30">
          <mxGeometry x="55" y="45" width="60" height="30" as="geometry" />
        </mxCell>
        <mxCell id="bmrprhmBqS_iFtBaMLF2-31" style="swimlane;swimlaneHead=0;swimlaneBody=0;fontStyle=0;connectable=0;strokeColor=inherit;fillColor=none;startSize=0;collapsible=0;recursiveResize=0;expand=0;fontSize=16;" vertex="1" parent="bmrprhmBqS_iFtBaMLF2-24">
          <mxGeometry x="1030" width="260" height="120" as="geometry">
            <mxRectangle width="260" height="120" as="alternateBounds" />
          </mxGeometry>
        </mxCell>
      </root>
    </mxGraphModel>
  </diagram>
  <diagram id="184j-hiPH05unu_dZ2nH" name="2 oldal">
    <mxGraphModel dx="814" dy="478" grid="1" gridSize="10" guides="1" tooltips="1" connect="1" arrows="1" fold="1" page="1" pageScale="1" pageWidth="827" pageHeight="1169" math="0" shadow="0">
      <root>
        <mxCell id="0" />
        <mxCell id="1" parent="0" />
        <UserObject label="Kezdőlap" treeRoot="1" id="wm425UBbXQububmyRuFp-10">
          <mxCell style="whiteSpace=wrap;html=1;align=center;treeFolding=1;treeMoving=1;newEdgeStyle={&quot;edgeStyle&quot;:&quot;elbowEdgeStyle&quot;,&quot;startArrow&quot;:&quot;none&quot;,&quot;endArrow&quot;:&quot;none&quot;};" vertex="1" parent="1">
            <mxGeometry x="354" y="110" width="120" height="60" as="geometry" />
          </mxCell>
        </UserObject>
        <mxCell id="wm425UBbXQububmyRuFp-11" value="Utvonalkeresés" style="whiteSpace=wrap;html=1;align=center;verticalAlign=middle;treeFolding=1;treeMoving=1;newEdgeStyle={&quot;edgeStyle&quot;:&quot;elbowEdgeStyle&quot;,&quot;startArrow&quot;:&quot;none&quot;,&quot;endArrow&quot;:&quot;none&quot;};" vertex="1" parent="1">
          <mxGeometry x="530" y="230" width="100" height="60" as="geometry" />
        </mxCell>
        <mxCell id="wm425UBbXQububmyRuFp-12" value="" style="edgeStyle=elbowEdgeStyle;elbow=vertical;sourcePerimeterSpacing=0;targetPerimeterSpacing=0;startArrow=none;endArrow=none;rounded=0;curved=0;" edge="1" target="wm425UBbXQububmyRuFp-11" parent="1">
          <mxGeometry relative="1" as="geometry">
            <mxPoint x="414" y="170" as="sourcePoint" />
          </mxGeometry>
        </mxCell>
        <mxCell id="wm425UBbXQububmyRuFp-13" value="Bejelentkezés/regisztráció" style="whiteSpace=wrap;html=1;align=center;verticalAlign=middle;treeFolding=1;treeMoving=1;newEdgeStyle={&quot;edgeStyle&quot;:&quot;elbowEdgeStyle&quot;,&quot;startArrow&quot;:&quot;none&quot;,&quot;endArrow&quot;:&quot;none&quot;};" vertex="1" parent="1">
          <mxGeometry x="364" y="230" width="100" height="60" as="geometry" />
        </mxCell>
        <mxCell id="wm425UBbXQububmyRuFp-14" value="" style="edgeStyle=elbowEdgeStyle;elbow=vertical;sourcePerimeterSpacing=0;targetPerimeterSpacing=0;startArrow=none;endArrow=none;rounded=0;curved=0;exitX=0.5;exitY=1;exitDx=0;exitDy=0;" edge="1" target="wm425UBbXQububmyRuFp-13" parent="1" source="wm425UBbXQububmyRuFp-10">
          <mxGeometry relative="1" as="geometry">
            <mxPoint x="414" y="190" as="sourcePoint" />
          </mxGeometry>
        </mxCell>
        <mxCell id="wm425UBbXQububmyRuFp-15" value="Admin felület" style="whiteSpace=wrap;html=1;align=center;verticalAlign=middle;treeFolding=1;treeMoving=1;newEdgeStyle={&quot;edgeStyle&quot;:&quot;elbowEdgeStyle&quot;,&quot;startArrow&quot;:&quot;none&quot;,&quot;endArrow&quot;:&quot;none&quot;};" vertex="1" parent="1">
          <mxGeometry x="210" y="230" width="100" height="60" as="geometry" />
        </mxCell>
        <mxCell id="wm425UBbXQububmyRuFp-16" value="" style="edgeStyle=elbowEdgeStyle;elbow=vertical;sourcePerimeterSpacing=0;targetPerimeterSpacing=0;startArrow=none;endArrow=none;rounded=0;curved=0;exitX=0.5;exitY=1;exitDx=0;exitDy=0;" edge="1" target="wm425UBbXQububmyRuFp-15" parent="1" source="wm425UBbXQububmyRuFp-10">
          <mxGeometry relative="1" as="geometry">
            <mxPoint x="210" y="190" as="sourcePoint" />
          </mxGeometry>
        </mxCell>
        <mxCell id="wm425UBbXQububmyRuFp-17" value="Vonatok kezelése" style="whiteSpace=wrap;html=1;rounded=1;arcSize=50;align=center;verticalAlign=middle;strokeWidth=1;autosize=1;spacing=4;treeFolding=1;treeMoving=1;newEdgeStyle={&quot;edgeStyle&quot;:&quot;entityRelationEdgeStyle&quot;,&quot;startArrow&quot;:&quot;none&quot;,&quot;endArrow&quot;:&quot;none&quot;,&quot;segment&quot;:10,&quot;curved&quot;:1,&quot;sourcePerimeterSpacing&quot;:0,&quot;targetPerimeterSpacing&quot;:0};" vertex="1" parent="1">
          <mxGeometry x="100" y="360" width="140" height="30" as="geometry" />
        </mxCell>
        <mxCell id="wm425UBbXQububmyRuFp-18" value="" style="edgeStyle=entityRelationEdgeStyle;startArrow=none;endArrow=none;segment=10;curved=1;sourcePerimeterSpacing=0;targetPerimeterSpacing=0;rounded=0;exitX=0.5;exitY=1;exitDx=0;exitDy=0;" edge="1" target="wm425UBbXQububmyRuFp-17" parent="1" source="wm425UBbXQububmyRuFp-15">
          <mxGeometry relative="1" as="geometry">
            <mxPoint x="210" y="310" as="sourcePoint" />
          </mxGeometry>
        </mxCell>
        <mxCell id="wm425UBbXQububmyRuFp-19" value="Állomások kezelése" style="whiteSpace=wrap;html=1;rounded=1;arcSize=50;align=center;verticalAlign=middle;strokeWidth=1;autosize=1;spacing=4;treeFolding=1;treeMoving=1;newEdgeStyle={&quot;edgeStyle&quot;:&quot;entityRelationEdgeStyle&quot;,&quot;startArrow&quot;:&quot;none&quot;,&quot;endArrow&quot;:&quot;none&quot;,&quot;segment&quot;:10,&quot;curved&quot;:1,&quot;sourcePerimeterSpacing&quot;:0,&quot;targetPerimeterSpacing&quot;:0};" vertex="1" parent="1">
          <mxGeometry x="110" y="400" width="150" height="30" as="geometry" />
        </mxCell>
        <mxCell id="wm425UBbXQububmyRuFp-20" value="" style="edgeStyle=entityRelationEdgeStyle;startArrow=none;endArrow=none;segment=10;curved=1;sourcePerimeterSpacing=0;targetPerimeterSpacing=0;rounded=0;exitX=0.5;exitY=1;exitDx=0;exitDy=0;" edge="1" target="wm425UBbXQububmyRuFp-19" parent="1" source="wm425UBbXQububmyRuFp-15">
          <mxGeometry relative="1" as="geometry">
            <mxPoint x="150" y="450" as="sourcePoint" />
          </mxGeometry>
        </mxCell>
        <mxCell id="wm425UBbXQububmyRuFp-23" value="Menetrend megtekintése" style="whiteSpace=wrap;html=1;rounded=1;arcSize=50;align=center;verticalAlign=middle;strokeWidth=1;autosize=1;spacing=4;treeFolding=1;treeMoving=1;newEdgeStyle={&quot;edgeStyle&quot;:&quot;entityRelationEdgeStyle&quot;,&quot;startArrow&quot;:&quot;none&quot;,&quot;endArrow&quot;:&quot;none&quot;,&quot;segment&quot;:10,&quot;curved&quot;:1,&quot;sourcePerimeterSpacing&quot;:0,&quot;targetPerimeterSpacing&quot;:0};" vertex="1" parent="1">
          <mxGeometry x="400" y="430" width="180" height="30" as="geometry" />
        </mxCell>
        <mxCell id="wm425UBbXQububmyRuFp-24" value="" style="edgeStyle=entityRelationEdgeStyle;startArrow=none;endArrow=none;segment=10;curved=1;sourcePerimeterSpacing=0;targetPerimeterSpacing=0;rounded=0;exitX=0.5;exitY=1;exitDx=0;exitDy=0;" edge="1" target="wm425UBbXQububmyRuFp-23" parent="1" source="wm425UBbXQububmyRuFp-11">
          <mxGeometry relative="1" as="geometry">
            <mxPoint x="590" y="350" as="sourcePoint" />
          </mxGeometry>
        </mxCell>
        <mxCell id="wm425UBbXQububmyRuFp-25" value="Állomás megtekintése" style="whiteSpace=wrap;html=1;rounded=1;arcSize=50;align=center;verticalAlign=middle;strokeWidth=1;autosize=1;spacing=4;treeFolding=1;treeMoving=1;newEdgeStyle={&quot;edgeStyle&quot;:&quot;entityRelationEdgeStyle&quot;,&quot;startArrow&quot;:&quot;none&quot;,&quot;endArrow&quot;:&quot;none&quot;,&quot;segment&quot;:10,&quot;curved&quot;:1,&quot;sourcePerimeterSpacing&quot;:0,&quot;targetPerimeterSpacing&quot;:0};" vertex="1" parent="1">
          <mxGeometry x="400" y="380" width="160" height="30" as="geometry" />
        </mxCell>
        <mxCell id="wm425UBbXQububmyRuFp-26" value="" style="edgeStyle=entityRelationEdgeStyle;startArrow=none;endArrow=none;segment=10;curved=1;sourcePerimeterSpacing=0;targetPerimeterSpacing=0;rounded=0;exitX=0.5;exitY=1;exitDx=0;exitDy=0;" edge="1" target="wm425UBbXQububmyRuFp-25" parent="1" source="wm425UBbXQububmyRuFp-11">
          <mxGeometry relative="1" as="geometry">
            <mxPoint x="420" y="436" as="sourcePoint" />
          </mxGeometry>
        </mxCell>
        <mxCell id="wm425UBbXQububmyRuFp-27" value="Jegy váltása" style="whiteSpace=wrap;html=1;rounded=1;arcSize=50;align=center;verticalAlign=middle;strokeWidth=1;autosize=1;spacing=4;treeFolding=1;treeMoving=1;newEdgeStyle={&quot;edgeStyle&quot;:&quot;entityRelationEdgeStyle&quot;,&quot;startArrow&quot;:&quot;none&quot;,&quot;endArrow&quot;:&quot;none&quot;,&quot;segment&quot;:10,&quot;curved&quot;:1,&quot;sourcePerimeterSpacing&quot;:0,&quot;targetPerimeterSpacing&quot;:0};" vertex="1" parent="1">
          <mxGeometry x="630" y="420" width="110" height="30" as="geometry" />
        </mxCell>
        <mxCell id="wm425UBbXQububmyRuFp-28" value="" style="edgeStyle=entityRelationEdgeStyle;startArrow=none;endArrow=none;segment=10;curved=1;sourcePerimeterSpacing=0;targetPerimeterSpacing=0;rounded=0;exitX=0.5;exitY=1;exitDx=0;exitDy=0;" edge="1" target="wm425UBbXQububmyRuFp-27" parent="1" source="wm425UBbXQububmyRuFp-11">
          <mxGeometry relative="1" as="geometry">
            <mxPoint x="650" y="402" as="sourcePoint" />
          </mxGeometry>
        </mxCell>
        <mxCell id="wm425UBbXQububmyRuFp-29" value="Statisztika elkészítése" style="whiteSpace=wrap;html=1;rounded=1;arcSize=50;align=center;verticalAlign=middle;strokeWidth=1;autosize=1;spacing=4;treeFolding=1;treeMoving=1;newEdgeStyle={&quot;edgeStyle&quot;:&quot;entityRelationEdgeStyle&quot;,&quot;startArrow&quot;:&quot;none&quot;,&quot;endArrow&quot;:&quot;none&quot;,&quot;segment&quot;:10,&quot;curved&quot;:1,&quot;sourcePerimeterSpacing&quot;:0,&quot;targetPerimeterSpacing&quot;:0};" vertex="1" parent="1">
          <mxGeometry x="120" y="440" width="160" height="30" as="geometry" />
        </mxCell>
        <mxCell id="wm425UBbXQububmyRuFp-30" value="" style="edgeStyle=entityRelationEdgeStyle;startArrow=none;endArrow=none;segment=10;curved=1;sourcePerimeterSpacing=0;targetPerimeterSpacing=0;rounded=0;exitX=0.5;exitY=1;exitDx=0;exitDy=0;" edge="1" target="wm425UBbXQububmyRuFp-29" parent="1" source="wm425UBbXQububmyRuFp-15">
          <mxGeometry relative="1" as="geometry">
            <mxPoint x="280" y="310" as="sourcePoint" />
            <Array as="points">
              <mxPoint x="350" y="430" />
            </Array>
          </mxGeometry>
        </mxCell>
        <mxCell id="wm425UBbXQububmyRuFp-31" value="Profiloldal" style="whiteSpace=wrap;html=1;align=center;verticalAlign=middle;treeFolding=1;treeMoving=1;newEdgeStyle={&quot;edgeStyle&quot;:&quot;elbowEdgeStyle&quot;,&quot;startArrow&quot;:&quot;none&quot;,&quot;endArrow&quot;:&quot;none&quot;};" vertex="1" parent="1">
          <mxGeometry x="670" y="230" width="100" height="60" as="geometry" />
        </mxCell>
        <mxCell id="wm425UBbXQububmyRuFp-32" value="" style="edgeStyle=elbowEdgeStyle;elbow=vertical;sourcePerimeterSpacing=0;targetPerimeterSpacing=0;startArrow=none;endArrow=none;rounded=0;curved=0;exitX=0.5;exitY=1;exitDx=0;exitDy=0;" edge="1" target="wm425UBbXQububmyRuFp-31" parent="1" source="wm425UBbXQububmyRuFp-10">
          <mxGeometry relative="1" as="geometry">
            <mxPoint x="650" y="190" as="sourcePoint" />
          </mxGeometry>
        </mxCell>
        <mxCell id="wm425UBbXQububmyRuFp-33" value="&lt;div&gt;Korábbi saját&lt;/div&gt;&lt;div&gt;jegyek megtekintése&lt;/div&gt;" style="whiteSpace=wrap;html=1;rounded=1;arcSize=50;align=center;verticalAlign=middle;strokeWidth=1;autosize=1;spacing=4;treeFolding=1;treeMoving=1;newEdgeStyle={&quot;edgeStyle&quot;:&quot;entityRelationEdgeStyle&quot;,&quot;startArrow&quot;:&quot;none&quot;,&quot;endArrow&quot;:&quot;none&quot;,&quot;segment&quot;:10,&quot;curved&quot;:1,&quot;sourcePerimeterSpacing&quot;:0,&quot;targetPerimeterSpacing&quot;:0};" vertex="1" parent="1">
          <mxGeometry x="660" y="310" width="150" height="50" as="geometry" />
        </mxCell>
        <mxCell id="wm425UBbXQububmyRuFp-34" value="" style="edgeStyle=entityRelationEdgeStyle;startArrow=none;endArrow=none;segment=10;curved=1;sourcePerimeterSpacing=0;targetPerimeterSpacing=0;rounded=0;exitX=0.5;exitY=1;exitDx=0;exitDy=0;" edge="1" target="wm425UBbXQububmyRuFp-33" parent="1" source="wm425UBbXQububmyRuFp-31">
          <mxGeometry relative="1" as="geometry">
            <mxPoint x="670" y="352" as="sourcePoint" />
          </mxGeometry>
        </mxCell>
        <mxCell id="wm425UBbXQububmyRuFp-35" value="&lt;div&gt;Új vonat&lt;/div&gt;" style="whiteSpace=wrap;html=1;rounded=1;arcSize=50;align=center;verticalAlign=middle;strokeWidth=1;autosize=1;spacing=4;treeFolding=1;treeMoving=1;newEdgeStyle={&quot;edgeStyle&quot;:&quot;entityRelationEdgeStyle&quot;,&quot;startArrow&quot;:&quot;none&quot;,&quot;endArrow&quot;:&quot;none&quot;,&quot;segment&quot;:10,&quot;curved&quot;:1,&quot;sourcePerimeterSpacing&quot;:0,&quot;targetPerimeterSpacing&quot;:0};" vertex="1" parent="1">
          <mxGeometry x="100" y="320" width="90" height="30" as="geometry" />
        </mxCell>
        <mxCell id="wm425UBbXQububmyRuFp-36" value="" style="edgeStyle=entityRelationEdgeStyle;startArrow=none;endArrow=none;segment=10;curved=1;sourcePerimeterSpacing=0;targetPerimeterSpacing=0;rounded=0;exitX=0;exitY=1;exitDx=0;exitDy=0;" edge="1" target="wm425UBbXQububmyRuFp-35" parent="1" source="wm425UBbXQububmyRuFp-15">
          <mxGeometry relative="1" as="geometry">
            <mxPoint x="260" y="290" as="sourcePoint" />
          </mxGeometry>
        </mxCell>
        <mxCell id="wm425UBbXQububmyRuFp-37" value="Új állomás" style="whiteSpace=wrap;html=1;rounded=1;arcSize=50;align=center;verticalAlign=middle;strokeWidth=1;autosize=1;spacing=4;treeFolding=1;treeMoving=1;newEdgeStyle={&quot;edgeStyle&quot;:&quot;entityRelationEdgeStyle&quot;,&quot;startArrow&quot;:&quot;none&quot;,&quot;endArrow&quot;:&quot;none&quot;,&quot;segment&quot;:10,&quot;curved&quot;:1,&quot;sourcePerimeterSpacing&quot;:0,&quot;targetPerimeterSpacing&quot;:0};" vertex="1" parent="1">
          <mxGeometry x="70" y="278" width="100" height="30" as="geometry" />
        </mxCell>
        <mxCell id="wm425UBbXQububmyRuFp-38" value="" style="edgeStyle=entityRelationEdgeStyle;startArrow=none;endArrow=none;segment=10;curved=1;sourcePerimeterSpacing=0;targetPerimeterSpacing=0;rounded=0;exitX=0;exitY=0.5;exitDx=0;exitDy=0;" edge="1" target="wm425UBbXQububmyRuFp-37" parent="1" source="wm425UBbXQububmyRuFp-15">
          <mxGeometry relative="1" as="geometry">
            <mxPoint x="40" y="320" as="sourcePoint" />
          </mxGeometry>
        </mxCell>
      </root>
    </mxGraphModel>
  </diagram>
</mxfile>
